<svg xmlns="http://www.w3.org/2000/svg" version="1.1" xmlns:xlink="http://www.w3.org/1999/xlink" xmlns:svgjs="http://svgjs.dev/svgjs" width="1500" height="526" viewBox="0 0 1500 526"><g transform="matrix(1,0,0,1,-0.9090909090909918,-1.6909490485874699)"><svg viewBox="0 0 396 139" data-background-color="#000000" preserveAspectRatio="xMidYMid meet" height="526" width="1500" xmlns="http://www.w3.org/2000/svg" xmlns:xlink="http://www.w3.org/1999/xlink"><g id="tight-bounds" transform="matrix(1,0,0,1,0.2400000000000091,0.44684775238337693)"><svg viewBox="0 0 395.52 138.10630449523327" height="138.10630449523327" width="395.52"><g><svg viewBox="0 0 513.667935140918 179.3607915149913" height="138.10630449523327" width="395.52"><g></g><g transform="matrix(1,0,0,1,118.147935140918,0.44617112317160945)"><svg viewBox="0 0 395.52 178.46844926864807" height="178.46844926864807" width="395.52"><g id="textblocktransform"><svg viewBox="0 0 395.52 178.46844926864807" height="178.46844926864807" width="395.52" id="textblock"><g><svg viewBox="0 0 395.52 178.46844926864807" height="178.46844926864807" width="395.52"><g transform="matrix(1,0,0,1,0,0)"><svg width="395.52" viewBox="2.018195219419123 -33.9 165.33180478058088 71.6" height="178.46844926864807" data-palette-color="url(#b776adf5-3f01-461d-b7d4-a1df0d81b48f)"><svg></svg><svg></svg><g class="wordmark-text-0" data-fill-palette-color="primary" id="text-0"></g></svg></g></svg></g></svg></g></svg></g><g transform="matrix(1,0,0,1,0,0.44617112317160945)"><svg viewBox="0 0 72.00445586692749 178.46844926864807" height="178.46844926864807" width="72.00445586692749"><g><svg xmlns="http://www.w3.org/2000/svg" xmlns:xlink="http://www.w3.org/1999/xlink" version="1.1" x="0" y="0" viewBox="29.643570427035947 1.202 39.377867213320165 97.601" enable-background="new 0 0 100 100" xml:space="preserve" height="178.46844926864807" width="72.00445586692749" class="icon-icon-0" data-fill-palette-color="accent" id="icon-0"></svg></g></svg></g></svg></g><defs></defs><mask id="0ef2e37c-e106-4370-bd7a-20434022dda3"><g id="SvgjsG6441"><svg viewBox="0 0 395.52 138.10630449523327" height="138.10630449523327" width="395.52"><g><svg viewBox="0 0 513.667935140918 179.3607915149913" height="138.10630449523327" width="395.52"><g><rect width="7.400003813041301" height="179.3607915149913" x="91.3761935974021" y="0" fill="white" opacity="1" stroke-width="0" stroke="transparent" fill-opacity="1" class="rect-yte-0" rx="1%" id="SvgjsRect6440" data-palette-color="url(#b776adf5-3f01-461d-b7d4-a1df0d81b48f)"></rect></g><g transform="matrix(1,0,0,1,118.147935140918,0.44617112317160945)"><svg viewBox="0 0 395.52 178.46844926864807" height="178.46844926864807" width="395.52"><g id="SvgjsG6439"><svg viewBox="0 0 395.52 178.46844926864807" height="178.46844926864807" width="395.52" id="SvgjsSvg6438"><g><svg viewBox="0 0 395.52 178.46844926864807" height="178.46844926864807" width="395.52"><g transform="matrix(1,0,0,1,0,0)"><svg width="395.52" viewBox="2.018195219419123 -33.9 165.33180478058088 71.6" height="178.46844926864807" data-palette-color="url(#b776adf5-3f01-461d-b7d4-a1df0d81b48f)"><svg></svg><svg></svg><g class="wordmark-text-0" data-fill-palette-color="primary" id="SvgjsG6437"><path d="M8-32.1v0c0.967 0 1.91-0.027 2.83-0.08 0.913-0.047 1.87-0.087 2.87-0.12v0c0.133 0.133 0.193 0.39 0.18 0.77-0.02 0.387-0.08 0.647-0.18 0.78v0c-0.2 0-0.567 0.023-1.1 0.07-0.533 0.053-1.033 0.13-1.5 0.23-0.467 0.1-0.733 0.25-0.8 0.45v0c-0.1 0.333-0.157 0.767-0.17 1.3-0.02 0.533-0.03 1.117-0.03 1.75v0c0 0.1 0 0.2 0 0.3 0 0.1 0 0.2 0 0.3v0 9.7c0.367-0.233 0.85-0.617 1.45-1.15 0.6-0.533 1.26-1.143 1.98-1.83 0.713-0.68 1.403-1.337 2.07-1.97v0c1.267-1.267 2.257-2.26 2.97-2.98 0.72-0.713 1.313-1.337 1.78-1.87 0.467-0.533 0.95-1.117 1.45-1.75v0c0.167-0.2 0.327-0.45 0.48-0.75 0.147-0.3 0.22-0.567 0.22-0.8v0c0-0.367-0.173-0.627-0.52-0.78-0.353-0.147-0.737-0.23-1.15-0.25-0.42-0.013-0.73-0.02-0.93-0.02v0c-0.067 0-0.117 0-0.15 0v0c-0.067-0.167-0.1-0.4-0.1-0.7 0-0.3 0.033-0.567 0.1-0.8v0c0.9 0.033 1.833 0.083 2.8 0.15 0.967 0.067 1.9 0.1 2.8 0.1v0c1.067 0 1.977-0.033 2.73-0.1 0.747-0.067 1.603-0.117 2.57-0.15v0c0.067 0.133 0.1 0.417 0.1 0.85 0 0.433-0.067 0.65-0.2 0.65v0c-0.133 0-0.49 0.023-1.07 0.07-0.587 0.053-1.22 0.203-1.9 0.45-0.687 0.253-1.313 0.68-1.88 1.28v0c-1.4 1.533-2.69 2.89-3.87 4.07-1.187 1.187-2.363 2.337-3.53 3.45-1.167 1.12-2.467 2.363-3.9 3.73v0c-0.067 0.1-0.067 0.217 0 0.35v0c2.367 2.733 4.577 5.29 6.63 7.67 2.047 2.387 4.003 4.463 5.87 6.23v0c0.6 0.533 1.31 1.017 2.13 1.45 0.813 0.433 1.887 0.7 3.22 0.8v0c0.133 0.133 0.167 0.383 0.1 0.75-0.067 0.367-0.117 0.583-0.15 0.65v0c-1.633 0-3.073-0.05-4.32-0.15-1.253-0.1-2.13-0.233-2.63-0.4v0c-0.333-0.133-0.8-0.35-1.4-0.65-0.6-0.3-1.233-0.783-1.9-1.45v0c-0.333-0.367-1.023-1.127-2.07-2.28-1.053-1.147-2.347-2.587-3.88-4.32-1.533-1.733-3.217-3.65-5.05-5.75v0c-0.067-0.1-0.217-0.15-0.45-0.15v0c-0.133 0-0.267 0.033-0.4 0.1v0 9.1c0 0.1 0 0.2 0 0.3 0 0.1 0 0.2 0 0.3v0c0 0.633 0.01 1.207 0.03 1.72 0.013 0.52 0.07 0.947 0.17 1.28v0c0.067 0.167 0.333 0.317 0.8 0.45 0.467 0.133 0.967 0.223 1.5 0.27 0.533 0.053 0.9 0.08 1.1 0.08v0c0.1 0.133 0.16 0.39 0.18 0.77 0.013 0.387-0.047 0.647-0.18 0.78v0c-1-0.067-1.957-0.127-2.87-0.18-0.92-0.047-1.863-0.07-2.83-0.07v0c-0.933 0-1.883 0.023-2.85 0.07-0.967 0.053-1.95 0.113-2.95 0.18v0c-0.133-0.133-0.193-0.393-0.18-0.78 0.02-0.38 0.08-0.637 0.18-0.77v0c0.2 0 0.567-0.027 1.1-0.08 0.533-0.047 1.043-0.137 1.53-0.27 0.48-0.133 0.737-0.283 0.77-0.45v0c0.133-0.4 0.21-0.917 0.23-1.55 0.013-0.633 0.02-1.317 0.02-2.05v0-20.55c0-0.733-0.007-1.427-0.02-2.08-0.02-0.647-0.097-1.17-0.23-1.57v0c-0.033-0.2-0.29-0.35-0.77-0.45-0.487-0.1-0.997-0.177-1.53-0.23-0.533-0.047-0.9-0.07-1.1-0.07v0c-0.1-0.133-0.16-0.393-0.18-0.78-0.013-0.38 0.047-0.637 0.18-0.77v0c1 0.033 1.983 0.073 2.95 0.12 0.967 0.053 1.917 0.08 2.85 0.08zM47.05-21.4v0c1.767 0 3.1 0.367 4 1.1 0.9 0.733 1.51 1.867 1.83 3.4 0.313 1.533 0.47 3.483 0.47 5.85v0 5.4c0 0.733 0.01 1.417 0.03 2.05 0.013 0.633 0.087 1.15 0.22 1.55v0c0.067 0.167 0.31 0.317 0.73 0.45 0.413 0.133 0.863 0.223 1.35 0.27 0.48 0.053 0.82 0.08 1.02 0.08v0c0.1 0.133 0.16 0.367 0.18 0.7 0.013 0.333-0.047 0.567-0.18 0.7v0c-1-0.067-1.883-0.127-2.65-0.18-0.767-0.047-1.633-0.07-2.6-0.07v0c-0.933 0-1.773 0.023-2.52 0.07-0.753 0.053-1.63 0.113-2.63 0.18v0c-0.133-0.133-0.19-0.367-0.17-0.7 0.013-0.333 0.07-0.567 0.17-0.7v0c0.2 0 0.533-0.027 1-0.08 0.467-0.047 0.917-0.137 1.35-0.27 0.433-0.133 0.667-0.283 0.7-0.45v0c0.133-0.4 0.21-0.917 0.23-1.55 0.013-0.633 0.02-1.317 0.02-2.05v0-4.9c0-2.033-0.133-3.627-0.4-4.78-0.267-1.147-0.75-1.97-1.45-2.47-0.7-0.5-1.683-0.75-2.95-0.75v0c-0.6 0-1.257 0.19-1.97 0.57-0.72 0.387-1.347 0.797-1.88 1.23-0.533 0.433-0.8 0.733-0.8 0.9v0 10.2c0 0.733 0.01 1.417 0.03 2.05 0.013 0.633 0.087 1.15 0.22 1.55v0c0.067 0.167 0.31 0.317 0.73 0.45 0.413 0.133 0.863 0.223 1.35 0.27 0.48 0.053 0.82 0.08 1.02 0.08v0c0.1 0.133 0.16 0.367 0.18 0.7 0.013 0.333-0.047 0.567-0.18 0.7v0c-1-0.067-1.883-0.127-2.65-0.18-0.767-0.047-1.633-0.07-2.6-0.07v0c-0.933 0-1.773 0.023-2.52 0.07-0.753 0.053-1.63 0.113-2.63 0.18v0c-0.133-0.133-0.19-0.367-0.17-0.7 0.013-0.333 0.07-0.567 0.17-0.7v0c0.2 0 0.533-0.027 1-0.08 0.467-0.047 0.917-0.137 1.35-0.27 0.433-0.133 0.667-0.283 0.7-0.45v0c0.133-0.4 0.21-0.917 0.23-1.55 0.013-0.633 0.02-1.317 0.02-2.05v0-21.6c0-0.333-0.007-0.767-0.02-1.3-0.02-0.533-0.097-0.95-0.23-1.25v0c-0.133-0.367-0.49-0.6-1.07-0.7-0.587-0.1-1.213-0.15-1.88-0.15v0c-0.033 0-0.057-0.21-0.07-0.63-0.02-0.413 0.02-0.637 0.12-0.67v0c1.233-0.133 2.433-0.377 3.6-0.73 1.167-0.347 2.267-0.753 3.3-1.22v0c0.133 0 0.26 0.09 0.38 0.27 0.113 0.187 0.17 0.363 0.17 0.53v0c0 0-0.09 0.367-0.27 1.1-0.187 0.733-0.28 1.783-0.28 3.15v0 11.05c0 0.067 0.05 0.1 0.15 0.1v0c0.033 0 0.083-0.033 0.15-0.1v0c0.333-0.367 0.877-0.833 1.63-1.4 0.747-0.567 1.57-1.077 2.47-1.53 0.9-0.447 1.733-0.67 2.5-0.67zM68.95-21.3v0c0.933 0 1.81 0.3 2.63 0.9 0.813 0.6 1.47 1.4 1.97 2.4 0.5 1 0.75 2.133 0.75 3.4v0 10.05c0 0.633 0.117 1.173 0.35 1.62 0.233 0.453 0.617 0.68 1.15 0.68v0c0.467 0 0.833-0.1 1.1-0.3 0.267-0.2 0.433-0.317 0.5-0.35v0c0.067 0 0.117 0.05 0.15 0.15 0.033 0.1 0.05 0.183 0.05 0.25v0c0 0.367-0.083 0.683-0.25 0.95v0c-0.2 0.167-0.523 0.4-0.97 0.7-0.453 0.3-0.92 0.567-1.4 0.8-0.487 0.233-0.913 0.35-1.28 0.35v0c-0.7 0-1.323-0.35-1.87-1.05-0.553-0.7-0.913-1.417-1.08-2.15v0c-0.133 0.133-0.44 0.383-0.92 0.75-0.487 0.367-1.047 0.74-1.68 1.12-0.633 0.387-1.257 0.72-1.87 1-0.62 0.287-1.147 0.43-1.58 0.43v0c-1.6 0-2.95-0.543-4.05-1.63-1.1-1.08-1.65-2.403-1.65-3.97v0c0-1 0.277-1.86 0.83-2.58 0.547-0.713 1.087-1.17 1.62-1.37v0c0.933-0.333 1.977-0.693 3.13-1.08 1.147-0.38 2.22-0.753 3.22-1.12 1-0.367 1.733-0.65 2.2-0.85v0c0.267-0.1 0.433-0.227 0.5-0.38 0.067-0.147 0.1-0.437 0.1-0.87v0-1.3c0-0.733-0.183-1.46-0.55-2.18-0.367-0.713-0.867-1.313-1.5-1.8-0.633-0.48-1.35-0.72-2.15-0.72v0c-0.833 0-1.45 0.267-1.85 0.8-0.4 0.533-0.683 1.283-0.85 2.25v0c-0.3 1.567-1.067 2.35-2.3 2.35v0c-0.533 0-0.94-0.217-1.22-0.65-0.287-0.433-0.43-0.9-0.43-1.4v0c0-0.1 0.033-0.293 0.1-0.58 0.067-0.28 0.15-0.487 0.25-0.62v0c0.5-0.467 1.217-1.017 2.15-1.65 0.933-0.633 1.99-1.183 3.17-1.65 1.187-0.467 2.363-0.7 3.53-0.7zM66.35-2.25v0c0.567 0 1.183-0.133 1.85-0.4 0.667-0.267 1.233-0.56 1.7-0.88 0.467-0.313 0.7-0.553 0.7-0.72v0-6.65c-0.633 0.2-1.433 0.45-2.4 0.75-0.967 0.3-1.683 0.533-2.15 0.7v0c-0.867 0.333-1.583 0.817-2.15 1.45-0.567 0.633-0.85 1.417-0.85 2.35v0c0 0.9 0.317 1.69 0.95 2.37 0.633 0.687 1.417 1.03 2.35 1.03zM93.95-21.4v0c1.767 0 3.1 0.367 4 1.1 0.9 0.733 1.51 1.867 1.83 3.4 0.313 1.533 0.47 3.483 0.47 5.85v0 5.4c0 0.733 0.01 1.417 0.03 2.05 0.013 0.633 0.087 1.15 0.22 1.55v0c0.067 0.167 0.31 0.317 0.73 0.45 0.413 0.133 0.853 0.223 1.32 0.27 0.467 0.053 0.8 0.08 1 0.08v0c0.1 0.133 0.16 0.367 0.18 0.7 0.013 0.333-0.047 0.567-0.18 0.7v0c-1-0.067-1.873-0.127-2.62-0.18-0.753-0.047-1.613-0.07-2.58-0.07v0c-0.933 0-1.783 0.023-2.55 0.07-0.767 0.053-1.65 0.113-2.65 0.18v0c-0.133-0.133-0.19-0.367-0.17-0.7 0.013-0.333 0.07-0.567 0.17-0.7v0c0.2 0 0.543-0.027 1.03-0.08 0.48-0.047 0.937-0.137 1.37-0.27 0.433-0.133 0.667-0.283 0.7-0.45v0c0.133-0.4 0.21-0.917 0.23-1.55 0.013-0.633 0.02-1.317 0.02-2.05v0-4.9c0-2.033-0.133-3.627-0.4-4.78-0.267-1.147-0.75-1.97-1.45-2.47-0.7-0.5-1.683-0.75-2.95-0.75v0c-0.6 0-1.257 0.19-1.97 0.57-0.72 0.387-1.347 0.797-1.88 1.23-0.533 0.433-0.8 0.733-0.8 0.9v0 10.2c0 0.733 0.01 1.417 0.03 2.05 0.013 0.633 0.087 1.15 0.22 1.55v0c0.067 0.167 0.31 0.317 0.73 0.45 0.413 0.133 0.853 0.223 1.32 0.27 0.467 0.053 0.8 0.08 1 0.08v0c0.1 0.133 0.16 0.367 0.18 0.7 0.013 0.333-0.047 0.567-0.18 0.7v0c-1-0.067-1.873-0.127-2.62-0.18-0.753-0.047-1.613-0.07-2.58-0.07v0c-0.933 0-1.783 0.023-2.55 0.07-0.767 0.053-1.65 0.113-2.65 0.18v0c-0.133-0.133-0.19-0.367-0.17-0.7 0.013-0.333 0.07-0.567 0.17-0.7v0c0.2 0 0.543-0.027 1.03-0.08 0.48-0.047 0.937-0.137 1.37-0.27 0.433-0.133 0.667-0.283 0.7-0.45v0c0.133-0.4 0.21-0.917 0.23-1.55 0.013-0.633 0.02-1.317 0.02-2.05v0-8.9c0-0.333-0.007-0.8-0.02-1.4-0.02-0.6-0.097-1.05-0.23-1.35v0c-0.1-0.3-0.383-0.51-0.85-0.63-0.467-0.113-0.933-0.18-1.4-0.2-0.467-0.013-0.767-0.02-0.9-0.02v0c-0.033-0.067-0.067-0.267-0.1-0.6-0.033-0.333 0-0.567 0.1-0.7v0c1.267-0.167 2.5-0.417 3.7-0.75 1.2-0.333 2.283-0.767 3.25-1.3v0c0.133 0 0.26 0.1 0.38 0.3 0.113 0.2 0.17 0.367 0.17 0.5v0c0 0.1-0.023 0.357-0.07 0.77-0.053 0.42-0.107 0.83-0.16 1.23-0.047 0.4-0.07 0.667-0.07 0.8v0c0 0.133 0.033 0.2 0.1 0.2v0c0.033 0 0.083-0.033 0.15-0.1v0c0.333-0.367 0.877-0.833 1.63-1.4 0.747-0.567 1.57-1.077 2.47-1.53 0.9-0.447 1.733-0.67 2.5-0.67zM115.9-21.3v0c0.933 0 1.81 0.3 2.63 0.9 0.813 0.6 1.47 1.4 1.97 2.4 0.5 1 0.75 2.133 0.75 3.4v0 10.05c0 0.633 0.117 1.173 0.35 1.62 0.233 0.453 0.617 0.68 1.15 0.68v0c0.467 0 0.833-0.1 1.1-0.3 0.267-0.2 0.433-0.317 0.5-0.35v0c0.067 0 0.117 0.05 0.15 0.15 0.033 0.1 0.05 0.183 0.05 0.25v0c0 0.367-0.083 0.683-0.25 0.95v0c-0.2 0.167-0.523 0.4-0.97 0.7-0.453 0.3-0.92 0.567-1.4 0.8-0.487 0.233-0.913 0.35-1.28 0.35v0c-0.7 0-1.323-0.35-1.87-1.05-0.553-0.7-0.913-1.417-1.08-2.15v0c-0.133 0.133-0.44 0.383-0.92 0.75-0.487 0.367-1.047 0.74-1.68 1.12-0.633 0.387-1.257 0.72-1.87 1-0.62 0.287-1.147 0.43-1.58 0.43v0c-1.6 0-2.95-0.543-4.05-1.63-1.1-1.08-1.65-2.403-1.65-3.97v0c0-1 0.277-1.86 0.83-2.58 0.547-0.713 1.087-1.17 1.62-1.37v0c0.933-0.333 1.977-0.693 3.13-1.08 1.147-0.38 2.22-0.753 3.22-1.12 1-0.367 1.733-0.65 2.2-0.85v0c0.267-0.1 0.433-0.227 0.5-0.38 0.067-0.147 0.1-0.437 0.1-0.87v0-1.3c0-0.733-0.183-1.46-0.55-2.18-0.367-0.713-0.867-1.313-1.5-1.8-0.633-0.48-1.35-0.72-2.15-0.72v0c-0.833 0-1.45 0.267-1.85 0.8-0.4 0.533-0.683 1.283-0.85 2.25v0c-0.3 1.567-1.067 2.35-2.3 2.35v0c-0.533 0-0.94-0.217-1.22-0.65-0.287-0.433-0.43-0.9-0.43-1.4v0c0-0.1 0.033-0.293 0.1-0.58 0.067-0.28 0.15-0.487 0.25-0.62v0c0.5-0.467 1.217-1.017 2.15-1.65 0.933-0.633 1.993-1.183 3.18-1.65 1.18-0.467 2.353-0.7 3.52-0.7zM113.3-2.25v0c0.567 0 1.183-0.133 1.85-0.4 0.667-0.267 1.233-0.56 1.7-0.88 0.467-0.313 0.7-0.553 0.7-0.72v0-6.65c-0.633 0.2-1.433 0.45-2.4 0.75-0.967 0.3-1.683 0.533-2.15 0.7v0c-0.867 0.333-1.583 0.817-2.15 1.45-0.567 0.633-0.85 1.417-0.85 2.35v0c0 0.9 0.317 1.69 0.95 2.37 0.633 0.687 1.417 1.03 2.35 1.03z" fill="white" fill-rule="nonzero" stroke="none" stroke-width="1" stroke-linecap="butt" stroke-linejoin="miter" stroke-miterlimit="10" stroke-dasharray="" stroke-dashoffset="0" font-family="none" font-weight="none" font-size="none" text-anchor="none" style="mix-blend-mode: normal" opacity="1"></path><path transform="translate(0,37.3)" d="M8-32.1v0c0.967 0 1.91-0.027 2.83-0.08 0.913-0.047 1.87-0.087 2.87-0.12v0c0.133 0.133 0.193 0.39 0.18 0.77-0.02 0.387-0.08 0.647-0.18 0.78v0c-0.2 0-0.567 0.023-1.1 0.07-0.533 0.053-1.033 0.13-1.5 0.23-0.467 0.1-0.733 0.25-0.8 0.45v0c-0.1 0.333-0.157 0.767-0.17 1.3-0.02 0.533-0.03 1.117-0.03 1.75v0c0 0.1 0 0.2 0 0.3 0 0.1 0 0.2 0 0.3v0 9.7c0.367-0.233 0.85-0.617 1.45-1.15 0.6-0.533 1.26-1.143 1.98-1.83 0.713-0.68 1.403-1.337 2.07-1.97v0c1.267-1.267 2.257-2.26 2.97-2.98 0.72-0.713 1.313-1.337 1.78-1.87 0.467-0.533 0.95-1.117 1.45-1.75v0c0.167-0.2 0.327-0.45 0.48-0.75 0.147-0.3 0.22-0.567 0.22-0.8v0c0-0.367-0.173-0.627-0.52-0.78-0.353-0.147-0.737-0.23-1.15-0.25-0.42-0.013-0.73-0.02-0.93-0.02v0c-0.067 0-0.117 0-0.15 0v0c-0.067-0.167-0.1-0.4-0.1-0.7 0-0.3 0.033-0.567 0.1-0.8v0c0.9 0.033 1.833 0.083 2.8 0.15 0.967 0.067 1.9 0.1 2.8 0.1v0c1.067 0 1.977-0.033 2.73-0.1 0.747-0.067 1.603-0.117 2.57-0.15v0c0.067 0.133 0.1 0.417 0.1 0.85 0 0.433-0.067 0.65-0.2 0.65v0c-0.133 0-0.49 0.023-1.07 0.07-0.587 0.053-1.22 0.203-1.9 0.45-0.687 0.253-1.313 0.68-1.88 1.28v0c-1.4 1.533-2.69 2.89-3.87 4.07-1.187 1.187-2.363 2.337-3.53 3.45-1.167 1.12-2.467 2.363-3.9 3.73v0c-0.067 0.1-0.067 0.217 0 0.35v0c2.367 2.733 4.577 5.29 6.63 7.67 2.047 2.387 4.003 4.463 5.87 6.23v0c0.6 0.533 1.31 1.017 2.13 1.45 0.813 0.433 1.887 0.7 3.22 0.8v0c0.133 0.133 0.167 0.383 0.1 0.75-0.067 0.367-0.117 0.583-0.15 0.65v0c-1.633 0-3.073-0.05-4.32-0.15-1.253-0.1-2.13-0.233-2.63-0.4v0c-0.333-0.133-0.8-0.35-1.4-0.65-0.6-0.3-1.233-0.783-1.9-1.45v0c-0.333-0.367-1.023-1.127-2.07-2.28-1.053-1.147-2.347-2.587-3.88-4.32-1.533-1.733-3.217-3.65-5.05-5.75v0c-0.067-0.1-0.217-0.15-0.45-0.15v0c-0.133 0-0.267 0.033-0.4 0.1v0 9.1c0 0.1 0 0.2 0 0.3 0 0.1 0 0.2 0 0.3v0c0 0.633 0.01 1.207 0.03 1.72 0.013 0.52 0.07 0.947 0.17 1.28v0c0.067 0.167 0.333 0.317 0.8 0.45 0.467 0.133 0.967 0.223 1.5 0.27 0.533 0.053 0.9 0.08 1.1 0.08v0c0.1 0.133 0.16 0.39 0.18 0.77 0.013 0.387-0.047 0.647-0.18 0.78v0c-1-0.067-1.957-0.127-2.87-0.18-0.92-0.047-1.863-0.07-2.83-0.07v0c-0.933 0-1.883 0.023-2.85 0.07-0.967 0.053-1.95 0.113-2.95 0.18v0c-0.133-0.133-0.193-0.393-0.18-0.78 0.02-0.38 0.08-0.637 0.18-0.77v0c0.2 0 0.567-0.027 1.1-0.08 0.533-0.047 1.043-0.137 1.53-0.27 0.48-0.133 0.737-0.283 0.77-0.45v0c0.133-0.4 0.21-0.917 0.23-1.55 0.013-0.633 0.02-1.317 0.02-2.05v0-20.55c0-0.733-0.007-1.427-0.02-2.08-0.02-0.647-0.097-1.17-0.23-1.57v0c-0.033-0.2-0.29-0.35-0.77-0.45-0.487-0.1-0.997-0.177-1.53-0.23-0.533-0.047-0.9-0.07-1.1-0.07v0c-0.1-0.133-0.16-0.393-0.18-0.78-0.013-0.38 0.047-0.637 0.18-0.77v0c1 0.033 1.983 0.073 2.95 0.12 0.967 0.053 1.917 0.08 2.85 0.08zM47.05-21.4v0c1.767 0 3.1 0.367 4 1.1 0.9 0.733 1.51 1.867 1.83 3.4 0.313 1.533 0.47 3.483 0.47 5.85v0 5.4c0 0.733 0.01 1.417 0.03 2.05 0.013 0.633 0.087 1.15 0.22 1.55v0c0.067 0.167 0.31 0.317 0.73 0.45 0.413 0.133 0.863 0.223 1.35 0.27 0.48 0.053 0.82 0.08 1.02 0.08v0c0.1 0.133 0.16 0.367 0.18 0.7 0.013 0.333-0.047 0.567-0.18 0.7v0c-1-0.067-1.883-0.127-2.65-0.18-0.767-0.047-1.633-0.07-2.6-0.07v0c-0.933 0-1.773 0.023-2.52 0.07-0.753 0.053-1.63 0.113-2.63 0.18v0c-0.133-0.133-0.19-0.367-0.17-0.7 0.013-0.333 0.07-0.567 0.17-0.7v0c0.2 0 0.533-0.027 1-0.08 0.467-0.047 0.917-0.137 1.35-0.27 0.433-0.133 0.667-0.283 0.7-0.45v0c0.133-0.4 0.21-0.917 0.23-1.55 0.013-0.633 0.02-1.317 0.02-2.05v0-4.9c0-2.033-0.133-3.627-0.4-4.78-0.267-1.147-0.75-1.97-1.45-2.47-0.7-0.5-1.683-0.75-2.95-0.75v0c-0.6 0-1.257 0.19-1.97 0.57-0.72 0.387-1.347 0.797-1.88 1.23-0.533 0.433-0.8 0.733-0.8 0.9v0 10.2c0 0.733 0.01 1.417 0.03 2.05 0.013 0.633 0.087 1.15 0.22 1.55v0c0.067 0.167 0.31 0.317 0.73 0.45 0.413 0.133 0.863 0.223 1.35 0.27 0.48 0.053 0.82 0.08 1.02 0.08v0c0.1 0.133 0.16 0.367 0.18 0.7 0.013 0.333-0.047 0.567-0.18 0.7v0c-1-0.067-1.883-0.127-2.65-0.18-0.767-0.047-1.633-0.07-2.6-0.07v0c-0.933 0-1.773 0.023-2.52 0.07-0.753 0.053-1.63 0.113-2.63 0.18v0c-0.133-0.133-0.19-0.367-0.17-0.7 0.013-0.333 0.07-0.567 0.17-0.7v0c0.2 0 0.533-0.027 1-0.08 0.467-0.047 0.917-0.137 1.35-0.27 0.433-0.133 0.667-0.283 0.7-0.45v0c0.133-0.4 0.21-0.917 0.23-1.55 0.013-0.633 0.02-1.317 0.02-2.05v0-21.6c0-0.333-0.007-0.767-0.02-1.3-0.02-0.533-0.097-0.95-0.23-1.25v0c-0.133-0.367-0.49-0.6-1.07-0.7-0.587-0.1-1.213-0.15-1.88-0.15v0c-0.033 0-0.057-0.21-0.07-0.63-0.02-0.413 0.02-0.637 0.12-0.67v0c1.233-0.133 2.433-0.377 3.6-0.73 1.167-0.347 2.267-0.753 3.3-1.22v0c0.133 0 0.26 0.09 0.38 0.27 0.113 0.187 0.17 0.363 0.17 0.53v0c0 0-0.09 0.367-0.27 1.1-0.187 0.733-0.28 1.783-0.28 3.15v0 11.05c0 0.067 0.05 0.1 0.15 0.1v0c0.033 0 0.083-0.033 0.15-0.1v0c0.333-0.367 0.877-0.833 1.63-1.4 0.747-0.567 1.57-1.077 2.47-1.53 0.9-0.447 1.733-0.67 2.5-0.67zM68.95-21.3v0c0.933 0 1.81 0.3 2.63 0.9 0.813 0.6 1.47 1.4 1.97 2.4 0.5 1 0.75 2.133 0.75 3.4v0 10.05c0 0.633 0.117 1.173 0.35 1.62 0.233 0.453 0.617 0.68 1.15 0.68v0c0.467 0 0.833-0.1 1.1-0.3 0.267-0.2 0.433-0.317 0.5-0.35v0c0.067 0 0.117 0.05 0.15 0.15 0.033 0.1 0.05 0.183 0.05 0.25v0c0 0.367-0.083 0.683-0.25 0.95v0c-0.2 0.167-0.523 0.4-0.97 0.7-0.453 0.3-0.92 0.567-1.4 0.8-0.487 0.233-0.913 0.35-1.28 0.35v0c-0.7 0-1.323-0.35-1.87-1.05-0.553-0.7-0.913-1.417-1.08-2.15v0c-0.133 0.133-0.44 0.383-0.92 0.75-0.487 0.367-1.047 0.74-1.68 1.12-0.633 0.387-1.257 0.72-1.87 1-0.62 0.287-1.147 0.43-1.58 0.43v0c-1.6 0-2.95-0.543-4.05-1.63-1.1-1.08-1.65-2.403-1.65-3.97v0c0-1 0.277-1.86 0.83-2.58 0.547-0.713 1.087-1.17 1.62-1.37v0c0.933-0.333 1.977-0.693 3.13-1.08 1.147-0.38 2.22-0.753 3.22-1.12 1-0.367 1.733-0.65 2.2-0.85v0c0.267-0.1 0.433-0.227 0.5-0.38 0.067-0.147 0.1-0.437 0.1-0.87v0-1.3c0-0.733-0.183-1.46-0.55-2.18-0.367-0.713-0.867-1.313-1.5-1.8-0.633-0.48-1.35-0.72-2.15-0.72v0c-0.833 0-1.45 0.267-1.85 0.8-0.4 0.533-0.683 1.283-0.85 2.25v0c-0.3 1.567-1.067 2.35-2.3 2.35v0c-0.533 0-0.94-0.217-1.22-0.65-0.287-0.433-0.43-0.9-0.43-1.4v0c0-0.1 0.033-0.293 0.1-0.58 0.067-0.28 0.15-0.487 0.25-0.62v0c0.5-0.467 1.217-1.017 2.15-1.65 0.933-0.633 1.99-1.183 3.17-1.65 1.187-0.467 2.363-0.7 3.53-0.7zM66.35-2.25v0c0.567 0 1.183-0.133 1.85-0.4 0.667-0.267 1.233-0.56 1.7-0.88 0.467-0.313 0.7-0.553 0.7-0.72v0-6.65c-0.633 0.2-1.433 0.45-2.4 0.75-0.967 0.3-1.683 0.533-2.15 0.7v0c-0.867 0.333-1.583 0.817-2.15 1.45-0.567 0.633-0.85 1.417-0.85 2.35v0c0 0.9 0.317 1.69 0.95 2.37 0.633 0.687 1.417 1.03 2.35 1.03zM85.45-21.05v0h6.25c1.333 0 2.41-0.033 3.23-0.1 0.813-0.067 1.72-0.167 2.72-0.3v0c0.1 0.167 0.15 0.34 0.15 0.52 0 0.187 0 0.363 0 0.53v0c0 0.067 0 0.117 0 0.15v0c0 0-0.233 0.333-0.7 1-0.467 0.667-1.083 1.55-1.85 2.65-0.767 1.1-1.607 2.3-2.52 3.6-0.92 1.3-1.847 2.607-2.78 3.92-0.933 1.32-1.783 2.537-2.55 3.65-0.767 1.12-1.383 2.013-1.85 2.68-0.467 0.667-0.7 1.017-0.7 1.05v0h6.85c1.5 0 2.693-0.477 3.58-1.43 0.88-0.947 1.47-1.937 1.77-2.97v0c0.033-0.2 0.15-0.3 0.35-0.3v0c0.5 0 0.917 0.2 1.25 0.6v0c0 0-0.133 0.323-0.4 0.97-0.267 0.653-0.567 1.43-0.9 2.33-0.333 0.9-0.633 1.733-0.9 2.5v0h-15.85c-0.167-0.067-0.333-0.2-0.5-0.4-0.167-0.2-0.25-0.4-0.25-0.6v0c0-0.033 0-0.083 0-0.15 0-0.067 0.017-0.117 0.05-0.15v0l12.55-18.05-6.85-0.05c-0.933 0-1.64 0.223-2.12 0.67-0.487 0.453-0.84 0.953-1.06 1.5-0.213 0.553-0.387 0.98-0.52 1.28v0c-0.133 0.267-0.483 0.4-1.05 0.4v0c-0.367 0-0.55-0.033-0.55-0.1v0c0.1-0.367 0.243-1.1 0.43-2.2 0.18-1.1 0.303-2.3 0.37-3.6v0c0 0 0.243 0.033 0.73 0.1 0.48 0.067 1.063 0.133 1.75 0.2 0.68 0.067 1.303 0.1 1.87 0.1zM111.75-21.3v0c0.933 0 1.81 0.3 2.63 0.9 0.813 0.6 1.47 1.4 1.97 2.4 0.5 1 0.75 2.133 0.75 3.4v0 10.05c0 0.633 0.117 1.173 0.35 1.62 0.233 0.453 0.617 0.68 1.15 0.68v0c0.467 0 0.833-0.1 1.1-0.3 0.267-0.2 0.433-0.317 0.5-0.35v0c0.067 0 0.117 0.05 0.15 0.15 0.033 0.1 0.05 0.183 0.05 0.25v0c0 0.367-0.083 0.683-0.25 0.95v0c-0.2 0.167-0.527 0.4-0.98 0.7-0.447 0.3-0.91 0.567-1.39 0.8-0.487 0.233-0.913 0.35-1.28 0.35v0c-0.7 0-1.323-0.35-1.87-1.05-0.553-0.7-0.913-1.417-1.08-2.15v0c-0.133 0.133-0.44 0.383-0.92 0.75-0.487 0.367-1.047 0.74-1.68 1.12-0.633 0.387-1.257 0.72-1.87 1-0.62 0.287-1.147 0.43-1.58 0.43v0c-1.6 0-2.95-0.543-4.05-1.63-1.1-1.08-1.65-2.403-1.65-3.97v0c0-1 0.277-1.86 0.83-2.58 0.547-0.713 1.087-1.17 1.62-1.37v0c0.933-0.333 1.977-0.693 3.13-1.08 1.147-0.38 2.22-0.753 3.22-1.12 1-0.367 1.733-0.65 2.2-0.85v0c0.267-0.1 0.433-0.227 0.5-0.38 0.067-0.147 0.1-0.437 0.1-0.87v0-1.3c0-0.733-0.183-1.46-0.55-2.18-0.367-0.713-0.867-1.313-1.5-1.8-0.633-0.48-1.35-0.72-2.15-0.72v0c-0.833 0-1.45 0.267-1.85 0.8-0.4 0.533-0.683 1.283-0.85 2.25v0c-0.3 1.567-1.067 2.35-2.3 2.35v0c-0.533 0-0.943-0.217-1.23-0.65-0.28-0.433-0.42-0.9-0.42-1.4v0c0-0.1 0.033-0.293 0.1-0.58 0.067-0.28 0.15-0.487 0.25-0.62v0c0.5-0.467 1.217-1.017 2.15-1.65 0.933-0.633 1.99-1.183 3.17-1.65 1.187-0.467 2.363-0.7 3.53-0.7zM109.15-2.25v0c0.567 0 1.183-0.133 1.85-0.4 0.667-0.267 1.233-0.56 1.7-0.88 0.467-0.313 0.7-0.553 0.7-0.72v0-6.65c-0.633 0.2-1.433 0.45-2.4 0.75-0.967 0.3-1.683 0.533-2.15 0.7v0c-0.867 0.333-1.583 0.817-2.15 1.45-0.567 0.633-0.85 1.417-0.85 2.35v0c0 0.9 0.317 1.69 0.95 2.37 0.633 0.687 1.417 1.03 2.35 1.03zM136.75-21.4v0c1.767 0 3.1 0.367 4 1.1 0.9 0.733 1.507 1.867 1.82 3.4 0.32 1.533 0.48 3.483 0.48 5.85v0 5.4c0 0.733 0.007 1.417 0.02 2.05 0.02 0.633 0.097 1.15 0.23 1.55v0c0.067 0.167 0.31 0.317 0.73 0.45 0.413 0.133 0.853 0.223 1.32 0.27 0.467 0.053 0.8 0.08 1 0.08v0c0.1 0.133 0.16 0.367 0.18 0.7 0.013 0.333-0.047 0.567-0.18 0.7v0c-1-0.067-1.877-0.127-2.63-0.18-0.747-0.047-1.603-0.07-2.57-0.07v0c-0.933 0-1.783 0.023-2.55 0.07-0.767 0.053-1.65 0.113-2.65 0.18v0c-0.133-0.133-0.19-0.367-0.17-0.7 0.013-0.333 0.07-0.567 0.17-0.7v0c0.2 0 0.54-0.027 1.02-0.08 0.487-0.047 0.947-0.137 1.38-0.27 0.433-0.133 0.667-0.283 0.7-0.45v0c0.133-0.4 0.21-0.917 0.23-1.55 0.013-0.633 0.02-1.317 0.02-2.05v0-4.9c0-2.033-0.133-3.627-0.4-4.78-0.267-1.147-0.75-1.97-1.45-2.47-0.7-0.5-1.683-0.75-2.95-0.75v0c-0.6 0-1.257 0.19-1.97 0.57-0.72 0.387-1.347 0.797-1.88 1.23-0.533 0.433-0.8 0.733-0.8 0.9v0 10.2c0 0.733 0.01 1.417 0.03 2.05 0.013 0.633 0.087 1.15 0.22 1.55v0c0.067 0.167 0.307 0.317 0.72 0.45 0.42 0.133 0.863 0.223 1.33 0.27 0.467 0.053 0.8 0.08 1 0.08v0c0.1 0.133 0.157 0.367 0.17 0.7 0.02 0.333-0.037 0.567-0.17 0.7v0c-1-0.067-1.873-0.127-2.62-0.18-0.753-0.047-1.613-0.07-2.58-0.07v0c-0.933 0-1.783 0.023-2.55 0.07-0.767 0.053-1.65 0.113-2.65 0.18v0c-0.133-0.133-0.19-0.367-0.17-0.7 0.013-0.333 0.07-0.567 0.17-0.7v0c0.2 0 0.543-0.027 1.03-0.08 0.48-0.047 0.937-0.137 1.37-0.27 0.433-0.133 0.667-0.283 0.7-0.45v0c0.133-0.4 0.21-0.917 0.23-1.55 0.013-0.633 0.02-1.317 0.02-2.05v0-8.9c0-0.333-0.007-0.8-0.02-1.4-0.02-0.6-0.097-1.05-0.23-1.35v0c-0.1-0.3-0.383-0.51-0.85-0.63-0.467-0.113-0.933-0.18-1.4-0.2-0.467-0.013-0.767-0.02-0.9-0.02v0c-0.033-0.067-0.067-0.267-0.1-0.6-0.033-0.333 0-0.567 0.1-0.7v0c1.267-0.167 2.5-0.417 3.7-0.75 1.2-0.333 2.283-0.767 3.25-1.3v0c0.133 0 0.26 0.1 0.38 0.3 0.113 0.2 0.17 0.367 0.17 0.5v0c0 0.1-0.023 0.357-0.07 0.77-0.053 0.42-0.107 0.83-0.16 1.23-0.047 0.4-0.07 0.667-0.07 0.8v0c0 0.133 0.033 0.2 0.1 0.2v0c0.033 0 0.083-0.033 0.15-0.1v0c0.333-0.367 0.877-0.833 1.63-1.4 0.747-0.567 1.57-1.077 2.47-1.53 0.9-0.447 1.733-0.67 2.5-0.67zM158.7-21.3v0c0.933 0 1.807 0.3 2.62 0.9 0.82 0.6 1.48 1.4 1.98 2.4 0.5 1 0.75 2.133 0.75 3.4v0 10.05c0 0.633 0.117 1.173 0.35 1.62 0.233 0.453 0.617 0.68 1.15 0.68v0c0.467 0 0.833-0.1 1.1-0.3 0.267-0.2 0.433-0.317 0.5-0.35v0c0.067 0 0.117 0.05 0.15 0.15 0.033 0.1 0.05 0.183 0.05 0.25v0c0 0.367-0.083 0.683-0.25 0.95v0c-0.2 0.167-0.523 0.4-0.97 0.7-0.453 0.3-0.923 0.567-1.41 0.8-0.48 0.233-0.903 0.35-1.27 0.35v0c-0.7 0-1.327-0.35-1.88-1.05-0.547-0.7-0.903-1.417-1.07-2.15v0c-0.133 0.133-0.443 0.383-0.93 0.75-0.48 0.367-1.037 0.74-1.67 1.12-0.633 0.387-1.26 0.72-1.88 1-0.613 0.287-1.137 0.43-1.57 0.43v0c-1.6 0-2.95-0.543-4.05-1.63-1.1-1.08-1.65-2.403-1.65-3.97v0c0-1 0.273-1.86 0.82-2.58 0.553-0.713 1.097-1.17 1.63-1.37v0c0.933-0.333 1.973-0.693 3.12-1.08 1.153-0.38 2.23-0.753 3.23-1.12 1-0.367 1.733-0.65 2.2-0.85v0c0.267-0.1 0.433-0.227 0.5-0.38 0.067-0.147 0.1-0.437 0.1-0.87v0-1.3c0-0.733-0.183-1.46-0.55-2.18-0.367-0.713-0.867-1.313-1.5-1.8-0.633-0.48-1.35-0.72-2.15-0.72v0c-0.833 0-1.45 0.267-1.85 0.8-0.4 0.533-0.683 1.283-0.85 2.25v0c-0.3 1.567-1.067 2.35-2.3 2.35v0c-0.533 0-0.943-0.217-1.23-0.65-0.28-0.433-0.42-0.9-0.42-1.4v0c0-0.1 0.033-0.293 0.1-0.58 0.067-0.28 0.15-0.487 0.25-0.62v0c0.5-0.467 1.217-1.017 2.15-1.65 0.933-0.633 1.99-1.183 3.17-1.65 1.187-0.467 2.363-0.7 3.53-0.7zM156.1-2.25v0c0.567 0 1.183-0.133 1.85-0.4 0.667-0.267 1.233-0.56 1.7-0.88 0.467-0.313 0.7-0.553 0.7-0.72v0-6.65c-0.633 0.2-1.433 0.45-2.4 0.75-0.967 0.3-1.683 0.533-2.15 0.7v0c-0.867 0.333-1.583 0.817-2.15 1.45-0.567 0.633-0.85 1.417-0.85 2.35v0c0 0.9 0.317 1.69 0.95 2.37 0.633 0.687 1.417 1.03 2.35 1.03z" fill="white" fill-rule="nonzero" stroke="none" stroke-width="1" stroke-linecap="butt" stroke-linejoin="miter" stroke-miterlimit="10" stroke-dasharray="" stroke-dashoffset="0" font-family="none" font-weight="none" font-size="none" text-anchor="none" style="mix-blend-mode: normal" opacity="1"></path></g></svg></g></svg></g></svg></g></svg></g><g transform="matrix(1,0,0,1,0,0.44617112317160945)"><svg viewBox="0 0 72.00445586692749 178.46844926864807" height="178.46844926864807" width="72.00445586692749"><g><svg xmlns="http://www.w3.org/2000/svg" xmlns:xlink="http://www.w3.org/1999/xlink" version="1.1" x="0" y="0" viewBox="29.643570427035947 1.202 39.377867213320165 97.601" enable-background="new 0 0 100 100" xml:space="preserve" height="178.46844926864807" width="72.00445586692749" class="icon-icon-0" data-fill-palette-color="accent" id="SvgjsSvg6436"><path fill="black" d="M48.786 57.076C48.786 56.769 49.036 56.519 49.347 56.519A0.56 0.56 0 1 1 48.786 57.076M42.647 72.865L42.981 72.529 45.594 72.992A3 3 0 0 0 45.569 73.291H42.696L42.739 73.648H45.569C45.575 73.748 45.583 73.847 45.594 73.947L42.981 74.408 42.811 74.236C43.961 83.466 45.954 92.447 49.332 96.871 52.71 92.447 54.701 83.467 55.855 74.236L55.683 74.408 53.068 73.947C53.08 73.849 53.089 73.75 53.093 73.648H55.927L55.97 73.291H53.093A4 4 0 0 0 53.068 72.992L55.683 72.531 56.019 72.867C56.146 71.763 56.263 70.658 56.369 69.56 56.775 65.353 57.021 61.283 57.17 57.789 54.254 62.668 50.366 65.35 50.04 65.492A0.76 0.76 0 0 1 49.593 66.437L50.271 67.119 49.804 69.773C49.706 69.763 49.611 69.753 49.513 69.75V66.463A0.7 0.7 0 0 1 49.355 66.49H49.314A1 1 0 0 1 49.156 66.463V69.75C49.056 69.754 48.961 69.766 48.865 69.773L48.394 67.117 49.074 66.435A0.754 0.754 0 0 1 48.627 65.492C48.303 65.347 44.412 62.668 41.496 57.789 41.644 61.283 41.892 65.353 42.297 69.56 42.401 70.656 42.518 71.762 42.647 72.865M49.336 65.309A0.42 0.42 0 0 0 49.336 66.149C49.565 66.143 49.744 65.958 49.744 65.729S49.565 65.314 49.336 65.309M34.487 50.59C34.272 50.746 34.083 50.94 33.977 51.19L30.661 61.393C30.231 62.715 31.169 63.102 31.712 63.196 32.019 63.247 38.54 64.813 38.54 64.813 39.093 64.946 39.104 65.524 38.56 65.68 38.56 65.68 32.189 67.52 31.357 67.762 30.837 67.914 30.662 68.455 30.882 68.895L30.909 68.961C32.309 73.469 40.054 93.436 48.737 97.588 41.52 88.397 40.364 59.92 40.37 47.778zM49.918 97.576C58.613 93.435 66.357 73.469 67.755 68.961L67.782 68.897C68.003 68.458 67.827 67.917 67.307 67.764 66.477 67.522 60.104 65.682 60.104 65.682 59.559 65.526 59.573 64.948 60.124 64.815 60.124 64.815 66.647 63.249 66.952 63.198 67.495 63.104 68.432 62.718 68.003 61.395L64.689 51.192C64.584 50.942 64.394 50.749 64.179 50.59L58.294 47.779C58.303 59.92 57.145 88.396 49.918 97.576M57.404 45.697C57.099 45.926 56.787 46.154 56.47 46.373L56.452 48.655C56.755 48.23 57.071 47.807 57.401 47.39V45.697zM42.194 46.354A28 28 0 0 1 41.262 45.685V47.392C41.59 47.809 41.907 48.232 42.209 48.657zM37.596 39.062C37.795 39.747 37.994 40.385 38.196 40.978L38.21 41.018C38.653 42.351 40.61 44.201 42.839 45.721 43.109 46.276 43.433 46.834 43.798 47.379A34 34 0 0 1 43.091 46.944L43.126 51.199 46.034 50.066C46.272 50.303 46.518 50.529 46.764 50.744L44.174 51.754C47.731 58.082 48.701 64.219 49.039 65.033A0.8 0.8 0 0 1 49.326 64.969 0.8 0.8 0 0 1 49.623 65.033C49.961 64.219 50.933 58.082 54.49 51.754L51.906 50.746C52.152 50.531 52.396 50.303 52.636 50.069L55.536 51.199 55.573 46.964C55.335 47.114 55.096 47.26 54.858 47.401 55.229 46.848 55.561 46.283 55.833 45.721A24 24 0 0 0 57.864 44.174C59.21 43.023 60.173 41.887 60.464 41.019L60.581 40.659C60.743 40.164 60.905 39.639 61.069 39.084 61.411 38.998 61.751 38.902 62.087 38.797A69 69 0 0 1 61.439 40.929L61.316 41.302C60.941 42.422 59.806 43.694 58.449 44.856L58.303 44.982V46.763C59.248 47.117 61.108 48.128 64.608 49.803 65.012 50.032 65.36 50.458 65.532 50.879L68.86 61.117C69.567 63.299 67.762 63.967 67.106 64.078 66.903 64.113 63.922 64.824 61.987 65.289 63.934 65.851 67.003 66.738 67.563 66.902 68.692 67.23 69.006 68.408 68.604 69.261 67.262 73.561 59.629 93.557 50.6 98.25 50.6 98.25 49.968 98.572 49.333 98.803A19 19 0 0 1 48.065 98.25C39.036 93.557 31.405 73.561 30.061 69.262 29.659 68.408 29.973 67.231 31.102 66.903A3844 3844 0 0 1 36.678 65.29C34.74 64.825 31.762 64.114 31.561 64.079 30.903 63.968 29.098 63.3 29.805 61.118L33.133 50.88C33.305 50.459 33.653 50.033 34.057 49.804 37.559 48.129 39.414 47.118 40.362 46.764V44.978C38.96 43.811 37.76 42.505 37.344 41.27A60 60 0 0 1 36.576 38.778C36.909 38.881 37.247 38.977 37.596 39.062M48.079 72.783A1.43 1.43 0 0 0 48.079 74.158L45.833 75.392 46.774 73.47 45.833 71.548zM50.02 72.217A1.42 1.42 0 0 0 48.645 72.217L47.411 69.971 49.331 70.912 51.25 69.971zM52.83 71.549L51.891 73.469 52.83 75.391 50.582 74.157A1.41 1.41 0 0 0 50.582 72.783zM44.211 68.279H44.744L46.791 70.718A4 4 0 0 0 46.578 70.925L44.211 68.939zM44.211 70.307V69.407L46.328 71.219 44.625 70.285 44.805 70.648zM44.125 71.385L44.211 71.297V70.719L45.086 71.225 45.391 71.846zM43.288 72.223L43.849 71.662 45.619 72.307 45.701 72.475C45.687 72.53 45.672 72.584 45.66 72.639zM43.848 75.275L43.287 74.714 45.656 74.298C45.67 74.353 45.683 74.407 45.699 74.462L45.617 74.63zM44.211 76.219V75.641L44.125 75.553 45.391 75.094 45.086 75.715zM44.211 77.531V76.631L44.805 76.289 44.625 76.654 46.346 75.742zM44.799 78.592H44.211V77.996L46.578 76.012C46.644 76.084 46.717 76.155 46.791 76.221zM46.167 78.592H45.267L47.089 76.461 46.148 78.176 46.513 77.996zM47.247 78.674L47.163 78.592H46.579L47.087 77.715 47.706 77.41zM48.084 79.512L47.523 78.953 48.168 77.183 48.391 77.076 48.508 77.105zM49.153 80.582L48.393 79.82 48.862 77.164C48.958 77.176 49.055 77.185 49.153 77.189zM50.27 79.822L49.51 80.584V77.189C49.608 77.183 49.705 77.175 49.803 77.164zM51.139 78.955L50.578 79.516 50.155 77.108 50.272 77.079 50.493 77.186zM52.082 78.592H51.5L51.416 78.676 50.955 77.41 51.574 77.713zM53.396 78.592H52.496L52.152 77.996 52.517 78.176 51.595 76.446zM54.523 78.061V78.592H53.863L51.873 76.221C51.945 76.155 52.018 76.084 52.084 76.012zM54.523 76.674V77.594L52.335 75.721 54.038 76.655 53.858 76.29zM54.537 75.555L54.523 76.262 53.576 75.715 53.271 75.094zM55.375 74.717L54.816 75.276 53.045 74.633 52.963 74.463C52.979 74.41 52.992 74.354 53.006 74.299zM54.816 71.662L55.375 72.224 53.006 72.642A2 2 0 0 0 52.965 72.476L53.045 72.31zM54.523 70.678V71.373L53.281 71.832 53.578 71.225zM54.523 69.346V70.266L53.859 70.651 54.039 70.286 52.318 71.198zM53.918 68.279H54.523V68.881L52.084 70.926A4 4 0 0 0 51.871 70.719zM52.533 68.279H53.453L51.574 70.478 52.517 68.763 52.152 68.941zM51.416 68.264L52.121 68.28 51.576 69.225 50.957 69.528zM50.578 67.426L51.139 67.985 50.493 69.755 50.272 69.864 50.155 69.835zM47.528 67.984L48.087 67.423 48.513 69.833 48.392 69.862 48.171 69.753zM46.542 68.279H47.231L47.69 69.519 47.088 69.224zM45.211 68.279H46.129L46.512 68.941 46.147 68.763 47.069 70.493zM48.282 73.469A1.05 1.05 0 1 1 50.379 73.469 1.05 1.05 0 0 1 48.282 73.47M48.645 74.723A1.45 1.45 0 0 0 50.021 74.723L51.253 76.969 49.334 76.026 47.414 76.969zM48.786 82.115C48.786 81.806 49.036 81.558 49.347 81.558A0.56 0.56 0 1 1 48.786 82.115M48.786 92.541A0.56 0.56 0 0 1 49.906 92.541 0.56 0.56 0 1 1 48.786 92.541M55.293 3.012C55.354 3.047 55.414 3.081 55.481 3.115 61.364 6.501 50.977 6.493 49.481 14.798 48.958 9.506 56.043 6.917 54.113 2.588A1.5 1.5 0 0 0 53.822 2.16C54.219 2.381 54.689 2.661 55.293 3.012M61.805 36.405C62.018 35.562 62.233 34.663 62.446 33.704 62.458 33.667 62.483 33.6 62.483 33.6A0.4 0.4 0 0 1 62.518 33.532C62.59 33.398 62.741 33.299 62.981 33.299 64.495 33.299 64.795 32.783 65.065 32.064 65.456 31.008 65.618 30.221 66.473 29.379 66.491 29.362 66.506 29.347 66.524 29.334L66.577 29.281C67.493 28.44 67.876 27.041 67.778 25.93 67.719 25.252 67.493 24.804 67.247 24.625 67.081 24.506 66.813 24.439 66.349 24.727 65.714 25.111 64.023 25.765 63.726 26.38A0.6 0.6 0 0 1 63.622 26.537C63.409 27.07 63.208 27.475 63.024 27.693 62.577 28.226 61.987 28.033 61.862 27.393L62.186 24.588C62.389 22.898 61.901 21.311 61.19 19.82 61.434 19.15 62.518 16.77 62.491 16.035 62.458 15.126 61.268 12.064 61.003 11.222 60.581 9.873 58.696 11.03 58.005 11.404 56.165 12.397 53.847 14.007 51.484 15.035 51.091 15.206 50.352 15.628 49.762 15.813 50.256 12.618 58.207 11.357 58.834 6.386 59.004 5.04 57.635 4.09 56.586 3.568 57.721 3.951 59.068 4.235 59.898 4.434 68.488 6.491 67.761 10.244 66.49 15.72 66.365 16.259 65.273 21.411 64.213 24.833 64.758 24.529 65.34 24.295 65.871 23.969 66.555 23.546 67.232 23.508 67.773 23.9 68.335 24.306 68.605 25.076 68.673 25.854 68.786 27.173 68.355 28.869 67.187 29.94L67.132 29.987 67.103 30.02C66.388 30.723 66.238 31.484 65.906 32.377 65.543 33.359 64.968 34.12 63.254 34.191A90 90 0 0 1 62.795 36.146 19 19 0 0 1 61.805 36.405M48.979 15.861A2 2 0 0 1 48.805 15.806C48.239 15.602 47.709 15.275 47.157 15.035 44.794 14.007 42.477 12.397 40.636 11.404 39.945 11.03 38.062 9.873 37.638 11.222 37.374 12.064 36.183 15.126 36.15 16.035 36.123 16.77 37.207 19.149 37.451 19.82 36.74 21.311 36.252 22.897 36.455 24.588L36.779 27.393S36.746 27.564 36.695 27.665C36.183 28.652 35.408 27.428 35.193 26.975A10 10 0 0 1 34.865 26.178C34.492 25.615 32.922 25.095 32.314 24.719 31.789 24.392 31.505 24.51 31.316 24.718 30.636 25.464 30.666 27.958 32.117 29.297 33.103 30.221 33.201 31.045 33.66 32.187 33.914 32.824 34.306 33.304 35.758 33.304L35.826 33.312C35.994 33.332 36.154 33.447 36.23 33.706 36.443 34.657 36.656 35.55 36.867 36.387A16 16 0 0 1 35.877 36.121 109 109 0 0 1 35.422 34.192C33.83 34.118 33.197 33.445 32.826 32.521 32.435 31.545 32.334 30.725 31.51 29.958 29.785 28.375 29.561 25.315 30.656 24.114 31.568 23.113 32.549 23.884 33.461 24.3 33.773 24.442 34.088 24.576 34.395 24.731 33.756 22.598 33.032 19.489 32.157 15.721 30.884 10.245 30.157 6.492 38.747 4.435 40.776 3.949 42.411 3.647 44.116 2.522 46.153 1.177 47.087 1.276 49.307 1.202 50.652 1.247 51.41 1.275 52.043 1.41 56.984 2.769 47.358 7.642 48.979 15.861M45.196 48.373C42.846 45.394 42.571 43.17 42.571 43.17 46.714 49.017 48.292 44.044 48.315 41.199 48.669 41.184 49.04 41.153 49.42 41.153 49.74 41.153 50.055 41.175 50.358 41.191 50.379 44.034 51.957 49.023 56.104 43.17 56.104 43.17 55.829 45.394 53.479 48.373 51.483 50.902 49.337 51.902 49.337 51.902S47.192 50.902 45.196 48.373M52.346 40.323C51.869 40.614 51.352 40.676 50.866 40.677 50.413 40.679 49.927 40.624 49.423 40.624S48.437 40.679 47.985 40.677C47.501 40.675 46.985 40.613 46.51 40.323 45.998 40.011 46.467 39.246 46.979 39.558 47.249 39.724 47.571 39.78 47.989 39.782 48.438 39.784 48.921 39.729 49.423 39.729 49.927 39.729 50.411 39.784 50.862 39.782 51.284 39.78 51.61 39.723 51.88 39.558 52.389 39.246 52.855 40.012 52.346 40.323M61.295 31.08C60.266 31.92 59.391 33.046 58.744 34.373 58.482 34.911 57.678 34.518 57.937 33.98 58.632 32.547 59.585 31.314 60.728 30.384 61.193 30.007 61.758 30.703 61.295 31.08M66.098 26.893C66.678 27.037 66.461 27.907 65.881 27.764 65.481 27.665 65.108 27.812 64.527 28.876 64.673 29.055 64.715 29.361 64.617 29.708 64.463 30.245 64.023 30.689 63.64 30.659 62.796 30.594 63.333 29.341 63.386 29.221 64.008 27.643 64.855 26.585 66.098 26.893M32.491 26.893C33.733 26.586 34.579 27.643 35.2 29.222 35.251 29.342 35.788 30.594 34.946 30.66 34.561 30.69 34.124 30.245 33.967 29.709 33.869 29.362 33.912 29.056 34.059 28.877 33.479 27.814 33.106 27.666 32.705 27.765 32.125 27.907 31.911 27.036 32.491 26.893M44.801 31.78A5.8 5.8 0 0 1 46.19 30.699C46.71 30.404 47.153 31.184 46.633 31.479A4.9 4.9 0 0 0 45.457 32.39C45.051 32.829 44.395 32.218 44.801 31.78M53.129 32.391A4.9 4.9 0 0 0 51.955 31.48C51.435 31.185 51.879 30.404 52.398 30.7A5.8 5.8 0 0 1 53.785 31.781C54.193 32.218 53.535 32.829 53.129 32.391M61.016 23.731C61.553 25.032 61.539 25.236 60.286 24.598 57.434 23.147 52.077 25.895 51.229 24.603 50.833 24 51.258 23.383 52.041 23.383 53.928 23.384 59.455 19.938 61.016 23.731M54.625 26.585C54.625 26.467 54.643 26.353 54.672 26.245 54.295 26.294 54.065 26.36 53.908 26.435 53.592 26.588 53.431 26.953 53.222 27.216 52.851 27.684 52.148 27.125 52.521 26.657 52.675 26.465 52.777 26.292 52.892 26.142 53.656 25.154 55.529 25.261 56.568 25.261 58.043 25.261 59.064 25.689 59.605 26.639 59.902 27.158 59.123 27.603 58.828 27.083 58.555 26.605 58.051 26.265 57.078 26.179A1.26 1.26 0 1 1 54.625 26.585M56.328 29.597C55.734 29.529 55.838 28.638 56.433 28.706 56.747 28.743 57.099 28.711 57.441 28.599A2.3 2.3 0 0 0 58.316 28.089C58.754 27.68 59.365 28.336 58.929 28.744 58.599 29.054 58.189 29.3 57.716 29.453A3.3 3.3 0 0 1 56.328 29.597M37.793 23.731C39.355 19.938 44.883 23.384 46.77 23.384 47.553 23.384 47.979 24.001 47.582 24.604 46.734 25.896 41.377 23.148 38.525 24.599 37.272 25.236 37.26 25.032 37.793 23.731M41.665 26.585C41.665 26.443 41.688 26.307 41.731 26.179 40.758 26.265 40.254 26.606 39.983 27.083 39.686 27.603 38.907 27.158 39.204 26.639 39.747 25.688 40.766 25.261 42.243 25.261 43.282 25.261 45.153 25.154 45.919 26.142 46.034 26.292 46.136 26.464 46.288 26.657 46.661 27.125 45.958 27.684 45.587 27.216 45.376 26.953 45.22 26.589 44.901 26.435 44.747 26.36 44.514 26.294 44.137 26.245A1.26 1.26 0 1 1 41.665 26.585M42.481 29.597A3.3 3.3 0 0 1 41.092 29.453 3.2 3.2 0 0 1 39.879 28.744C39.443 28.336 40.059 27.681 40.494 28.089 40.726 28.307 41.021 28.487 41.369 28.599 41.711 28.711 42.06 28.743 42.377 28.706 42.971 28.638 43.073 29.529 42.481 29.597M37.436 31.08C36.973 30.703 37.54 30.007 38.002 30.385 39.145 31.315 40.098 32.548 40.791 33.981 41.055 34.519 40.246 34.911 39.986 34.374 39.34 33.046 38.465 31.92 37.436 31.08M49.336 24.337L49.731 23.844C50.106 23.378 50.805 23.938 50.432 24.406L49.688 25.337C49.493 25.582 49.184 25.582 48.987 25.337L48.243 24.406C47.868 23.939 48.569 23.379 48.944 23.844zM49.401 33.983C49.608 33.981 50.299 33.963 50.553 33.918 51.035 33.833 51.526 33.455 51.563 33.427 51.709 33.316 51.844 33.248 52.073 33.198 52.61 33.081 53.046 33.418 53.135 33.53 53.432 33.901 53.27 34.269 52.791 34.269H52.344C51.604 34.269 51.24 34.701 50.415 34.916 53.077 35.259 54.139 36.907 58.51 37.245 61.604 37.484 66.707 35.723 67.903 33.767 67.049 36.37 62.514 39.144 56.419 39.065 53.605 39.028 53.694 38.157 51.79 38.126H46.965C45.063 38.158 45.153 39.029 42.338 39.065 36.242 39.144 31.707 36.37 30.856 33.767 32.047 35.723 37.153 37.484 40.249 37.245 44.636 36.906 45.687 35.245 48.376 34.912 47.56 34.695 47.196 34.269 46.46 34.269H46.015C45.536 34.269 45.372 33.901 45.671 33.53 45.759 33.418 46.194 33.081 46.733 33.198 46.962 33.248 47.096 33.315 47.241 33.427 47.278 33.455 47.764 33.865 48.251 33.918 48.659 33.963 49.194 33.981 49.401 33.983"></path></svg></g></svg></g></svg></g><defs><mask></mask></defs></svg><rect width="395.52" height="138.10630449523327" fill="black" stroke="none" visibility="hidden"></rect></g></mask><linearGradient x1="0" x2="1" y1="0.5" y2="0.5" id="b776adf5-3f01-461d-b7d4-a1df0d81b48f"><stop stop-color="#f00b51" offset="0"></stop><stop stop-color="#730062" offset="1"></stop></linearGradient><rect width="395.52" height="138.10630449523327" fill="url(#b776adf5-3f01-461d-b7d4-a1df0d81b48f)" mask="url(#0ef2e37c-e106-4370-bd7a-20434022dda3)" data-fill-palette-color="primary"></rect><mask id="70642de8-6586-4350-a4dc-153e61114dbf"><g id="SvgjsG6452"><svg viewBox="0 0 395.52 138.10630449523327" height="138.10630449523327" width="395.52"><g><svg viewBox="0 0 513.667935140918 179.3607915149913" height="138.10630449523327" width="395.52"><g></g><g transform="matrix(1,0,0,1,118.147935140918,0.44617112317160945)"><svg viewBox="0 0 395.52 178.46844926864807" height="178.46844926864807" width="395.52"><g id="SvgjsG6451"><svg viewBox="0 0 395.52 178.46844926864807" height="178.46844926864807" width="395.52" id="SvgjsSvg6450"><g><svg viewBox="0 0 395.52 178.46844926864807" height="178.46844926864807" width="395.52"><g transform="matrix(1,0,0,1,0,0)"><svg width="395.52" viewBox="2.018195219419123 -33.9 165.33180478058088 71.6" height="178.46844926864807" data-palette-color="url(#b776adf5-3f01-461d-b7d4-a1df0d81b48f)"><svg></svg><svg></svg><g class="wordmark-text-0" data-fill-palette-color="primary" id="SvgjsG6449"></g></svg></g></svg></g></svg></g></svg></g><g transform="matrix(1,0,0,1,0,0.44617112317160945)"><svg viewBox="0 0 72.00445586692749 178.46844926864807" height="178.46844926864807" width="72.00445586692749"><g><svg xmlns="http://www.w3.org/2000/svg" xmlns:xlink="http://www.w3.org/1999/xlink" version="1.1" x="0" y="0" viewBox="29.643570427035947 1.202 39.377867213320165 97.601" enable-background="new 0 0 100 100" xml:space="preserve" height="178.46844926864807" width="72.00445586692749" class="icon-icon-0" data-fill-palette-color="accent" id="SvgjsSvg6448"><path fill="white" d="M48.786 57.076C48.786 56.769 49.036 56.519 49.347 56.519A0.56 0.56 0 1 1 48.786 57.076M42.647 72.865L42.981 72.529 45.594 72.992A3 3 0 0 0 45.569 73.291H42.696L42.739 73.648H45.569C45.575 73.748 45.583 73.847 45.594 73.947L42.981 74.408 42.811 74.236C43.961 83.466 45.954 92.447 49.332 96.871 52.71 92.447 54.701 83.467 55.855 74.236L55.683 74.408 53.068 73.947C53.08 73.849 53.089 73.75 53.093 73.648H55.927L55.97 73.291H53.093A4 4 0 0 0 53.068 72.992L55.683 72.531 56.019 72.867C56.146 71.763 56.263 70.658 56.369 69.56 56.775 65.353 57.021 61.283 57.17 57.789 54.254 62.668 50.366 65.35 50.04 65.492A0.76 0.76 0 0 1 49.593 66.437L50.271 67.119 49.804 69.773C49.706 69.763 49.611 69.753 49.513 69.75V66.463A0.7 0.7 0 0 1 49.355 66.49H49.314A1 1 0 0 1 49.156 66.463V69.75C49.056 69.754 48.961 69.766 48.865 69.773L48.394 67.117 49.074 66.435A0.754 0.754 0 0 1 48.627 65.492C48.303 65.347 44.412 62.668 41.496 57.789 41.644 61.283 41.892 65.353 42.297 69.56 42.401 70.656 42.518 71.762 42.647 72.865M49.336 65.309A0.42 0.42 0 0 0 49.336 66.149C49.565 66.143 49.744 65.958 49.744 65.729S49.565 65.314 49.336 65.309M34.487 50.59C34.272 50.746 34.083 50.94 33.977 51.19L30.661 61.393C30.231 62.715 31.169 63.102 31.712 63.196 32.019 63.247 38.54 64.813 38.54 64.813 39.093 64.946 39.104 65.524 38.56 65.68 38.56 65.68 32.189 67.52 31.357 67.762 30.837 67.914 30.662 68.455 30.882 68.895L30.909 68.961C32.309 73.469 40.054 93.436 48.737 97.588 41.52 88.397 40.364 59.92 40.37 47.778zM49.918 97.576C58.613 93.435 66.357 73.469 67.755 68.961L67.782 68.897C68.003 68.458 67.827 67.917 67.307 67.764 66.477 67.522 60.104 65.682 60.104 65.682 59.559 65.526 59.573 64.948 60.124 64.815 60.124 64.815 66.647 63.249 66.952 63.198 67.495 63.104 68.432 62.718 68.003 61.395L64.689 51.192C64.584 50.942 64.394 50.749 64.179 50.59L58.294 47.779C58.303 59.92 57.145 88.396 49.918 97.576M57.404 45.697C57.099 45.926 56.787 46.154 56.47 46.373L56.452 48.655C56.755 48.23 57.071 47.807 57.401 47.39V45.697zM42.194 46.354A28 28 0 0 1 41.262 45.685V47.392C41.59 47.809 41.907 48.232 42.209 48.657zM37.596 39.062C37.795 39.747 37.994 40.385 38.196 40.978L38.21 41.018C38.653 42.351 40.61 44.201 42.839 45.721 43.109 46.276 43.433 46.834 43.798 47.379A34 34 0 0 1 43.091 46.944L43.126 51.199 46.034 50.066C46.272 50.303 46.518 50.529 46.764 50.744L44.174 51.754C47.731 58.082 48.701 64.219 49.039 65.033A0.8 0.8 0 0 1 49.326 64.969 0.8 0.8 0 0 1 49.623 65.033C49.961 64.219 50.933 58.082 54.49 51.754L51.906 50.746C52.152 50.531 52.396 50.303 52.636 50.069L55.536 51.199 55.573 46.964C55.335 47.114 55.096 47.26 54.858 47.401 55.229 46.848 55.561 46.283 55.833 45.721A24 24 0 0 0 57.864 44.174C59.21 43.023 60.173 41.887 60.464 41.019L60.581 40.659C60.743 40.164 60.905 39.639 61.069 39.084 61.411 38.998 61.751 38.902 62.087 38.797A69 69 0 0 1 61.439 40.929L61.316 41.302C60.941 42.422 59.806 43.694 58.449 44.856L58.303 44.982V46.763C59.248 47.117 61.108 48.128 64.608 49.803 65.012 50.032 65.36 50.458 65.532 50.879L68.86 61.117C69.567 63.299 67.762 63.967 67.106 64.078 66.903 64.113 63.922 64.824 61.987 65.289 63.934 65.851 67.003 66.738 67.563 66.902 68.692 67.23 69.006 68.408 68.604 69.261 67.262 73.561 59.629 93.557 50.6 98.25 50.6 98.25 49.968 98.572 49.333 98.803A19 19 0 0 1 48.065 98.25C39.036 93.557 31.405 73.561 30.061 69.262 29.659 68.408 29.973 67.231 31.102 66.903A3844 3844 0 0 1 36.678 65.29C34.74 64.825 31.762 64.114 31.561 64.079 30.903 63.968 29.098 63.3 29.805 61.118L33.133 50.88C33.305 50.459 33.653 50.033 34.057 49.804 37.559 48.129 39.414 47.118 40.362 46.764V44.978C38.96 43.811 37.76 42.505 37.344 41.27A60 60 0 0 1 36.576 38.778C36.909 38.881 37.247 38.977 37.596 39.062M48.079 72.783A1.43 1.43 0 0 0 48.079 74.158L45.833 75.392 46.774 73.47 45.833 71.548zM50.02 72.217A1.42 1.42 0 0 0 48.645 72.217L47.411 69.971 49.331 70.912 51.25 69.971zM52.83 71.549L51.891 73.469 52.83 75.391 50.582 74.157A1.41 1.41 0 0 0 50.582 72.783zM44.211 68.279H44.744L46.791 70.718A4 4 0 0 0 46.578 70.925L44.211 68.939zM44.211 70.307V69.407L46.328 71.219 44.625 70.285 44.805 70.648zM44.125 71.385L44.211 71.297V70.719L45.086 71.225 45.391 71.846zM43.288 72.223L43.849 71.662 45.619 72.307 45.701 72.475C45.687 72.53 45.672 72.584 45.66 72.639zM43.848 75.275L43.287 74.714 45.656 74.298C45.67 74.353 45.683 74.407 45.699 74.462L45.617 74.63zM44.211 76.219V75.641L44.125 75.553 45.391 75.094 45.086 75.715zM44.211 77.531V76.631L44.805 76.289 44.625 76.654 46.346 75.742zM44.799 78.592H44.211V77.996L46.578 76.012C46.644 76.084 46.717 76.155 46.791 76.221zM46.167 78.592H45.267L47.089 76.461 46.148 78.176 46.513 77.996zM47.247 78.674L47.163 78.592H46.579L47.087 77.715 47.706 77.41zM48.084 79.512L47.523 78.953 48.168 77.183 48.391 77.076 48.508 77.105zM49.153 80.582L48.393 79.82 48.862 77.164C48.958 77.176 49.055 77.185 49.153 77.189zM50.27 79.822L49.51 80.584V77.189C49.608 77.183 49.705 77.175 49.803 77.164zM51.139 78.955L50.578 79.516 50.155 77.108 50.272 77.079 50.493 77.186zM52.082 78.592H51.5L51.416 78.676 50.955 77.41 51.574 77.713zM53.396 78.592H52.496L52.152 77.996 52.517 78.176 51.595 76.446zM54.523 78.061V78.592H53.863L51.873 76.221C51.945 76.155 52.018 76.084 52.084 76.012zM54.523 76.674V77.594L52.335 75.721 54.038 76.655 53.858 76.29zM54.537 75.555L54.523 76.262 53.576 75.715 53.271 75.094zM55.375 74.717L54.816 75.276 53.045 74.633 52.963 74.463C52.979 74.41 52.992 74.354 53.006 74.299zM54.816 71.662L55.375 72.224 53.006 72.642A2 2 0 0 0 52.965 72.476L53.045 72.31zM54.523 70.678V71.373L53.281 71.832 53.578 71.225zM54.523 69.346V70.266L53.859 70.651 54.039 70.286 52.318 71.198zM53.918 68.279H54.523V68.881L52.084 70.926A4 4 0 0 0 51.871 70.719zM52.533 68.279H53.453L51.574 70.478 52.517 68.763 52.152 68.941zM51.416 68.264L52.121 68.28 51.576 69.225 50.957 69.528zM50.578 67.426L51.139 67.985 50.493 69.755 50.272 69.864 50.155 69.835zM47.528 67.984L48.087 67.423 48.513 69.833 48.392 69.862 48.171 69.753zM46.542 68.279H47.231L47.69 69.519 47.088 69.224zM45.211 68.279H46.129L46.512 68.941 46.147 68.763 47.069 70.493zM48.282 73.469A1.05 1.05 0 1 1 50.379 73.469 1.05 1.05 0 0 1 48.282 73.47M48.645 74.723A1.45 1.45 0 0 0 50.021 74.723L51.253 76.969 49.334 76.026 47.414 76.969zM48.786 82.115C48.786 81.806 49.036 81.558 49.347 81.558A0.56 0.56 0 1 1 48.786 82.115M48.786 92.541A0.56 0.56 0 0 1 49.906 92.541 0.56 0.56 0 1 1 48.786 92.541M55.293 3.012C55.354 3.047 55.414 3.081 55.481 3.115 61.364 6.501 50.977 6.493 49.481 14.798 48.958 9.506 56.043 6.917 54.113 2.588A1.5 1.5 0 0 0 53.822 2.16C54.219 2.381 54.689 2.661 55.293 3.012M61.805 36.405C62.018 35.562 62.233 34.663 62.446 33.704 62.458 33.667 62.483 33.6 62.483 33.6A0.4 0.4 0 0 1 62.518 33.532C62.59 33.398 62.741 33.299 62.981 33.299 64.495 33.299 64.795 32.783 65.065 32.064 65.456 31.008 65.618 30.221 66.473 29.379 66.491 29.362 66.506 29.347 66.524 29.334L66.577 29.281C67.493 28.44 67.876 27.041 67.778 25.93 67.719 25.252 67.493 24.804 67.247 24.625 67.081 24.506 66.813 24.439 66.349 24.727 65.714 25.111 64.023 25.765 63.726 26.38A0.6 0.6 0 0 1 63.622 26.537C63.409 27.07 63.208 27.475 63.024 27.693 62.577 28.226 61.987 28.033 61.862 27.393L62.186 24.588C62.389 22.898 61.901 21.311 61.19 19.82 61.434 19.15 62.518 16.77 62.491 16.035 62.458 15.126 61.268 12.064 61.003 11.222 60.581 9.873 58.696 11.03 58.005 11.404 56.165 12.397 53.847 14.007 51.484 15.035 51.091 15.206 50.352 15.628 49.762 15.813 50.256 12.618 58.207 11.357 58.834 6.386 59.004 5.04 57.635 4.09 56.586 3.568 57.721 3.951 59.068 4.235 59.898 4.434 68.488 6.491 67.761 10.244 66.49 15.72 66.365 16.259 65.273 21.411 64.213 24.833 64.758 24.529 65.34 24.295 65.871 23.969 66.555 23.546 67.232 23.508 67.773 23.9 68.335 24.306 68.605 25.076 68.673 25.854 68.786 27.173 68.355 28.869 67.187 29.94L67.132 29.987 67.103 30.02C66.388 30.723 66.238 31.484 65.906 32.377 65.543 33.359 64.968 34.12 63.254 34.191A90 90 0 0 1 62.795 36.146 19 19 0 0 1 61.805 36.405M48.979 15.861A2 2 0 0 1 48.805 15.806C48.239 15.602 47.709 15.275 47.157 15.035 44.794 14.007 42.477 12.397 40.636 11.404 39.945 11.03 38.062 9.873 37.638 11.222 37.374 12.064 36.183 15.126 36.15 16.035 36.123 16.77 37.207 19.149 37.451 19.82 36.74 21.311 36.252 22.897 36.455 24.588L36.779 27.393S36.746 27.564 36.695 27.665C36.183 28.652 35.408 27.428 35.193 26.975A10 10 0 0 1 34.865 26.178C34.492 25.615 32.922 25.095 32.314 24.719 31.789 24.392 31.505 24.51 31.316 24.718 30.636 25.464 30.666 27.958 32.117 29.297 33.103 30.221 33.201 31.045 33.66 32.187 33.914 32.824 34.306 33.304 35.758 33.304L35.826 33.312C35.994 33.332 36.154 33.447 36.23 33.706 36.443 34.657 36.656 35.55 36.867 36.387A16 16 0 0 1 35.877 36.121 109 109 0 0 1 35.422 34.192C33.83 34.118 33.197 33.445 32.826 32.521 32.435 31.545 32.334 30.725 31.51 29.958 29.785 28.375 29.561 25.315 30.656 24.114 31.568 23.113 32.549 23.884 33.461 24.3 33.773 24.442 34.088 24.576 34.395 24.731 33.756 22.598 33.032 19.489 32.157 15.721 30.884 10.245 30.157 6.492 38.747 4.435 40.776 3.949 42.411 3.647 44.116 2.522 46.153 1.177 47.087 1.276 49.307 1.202 50.652 1.247 51.41 1.275 52.043 1.41 56.984 2.769 47.358 7.642 48.979 15.861M45.196 48.373C42.846 45.394 42.571 43.17 42.571 43.17 46.714 49.017 48.292 44.044 48.315 41.199 48.669 41.184 49.04 41.153 49.42 41.153 49.74 41.153 50.055 41.175 50.358 41.191 50.379 44.034 51.957 49.023 56.104 43.17 56.104 43.17 55.829 45.394 53.479 48.373 51.483 50.902 49.337 51.902 49.337 51.902S47.192 50.902 45.196 48.373M52.346 40.323C51.869 40.614 51.352 40.676 50.866 40.677 50.413 40.679 49.927 40.624 49.423 40.624S48.437 40.679 47.985 40.677C47.501 40.675 46.985 40.613 46.51 40.323 45.998 40.011 46.467 39.246 46.979 39.558 47.249 39.724 47.571 39.78 47.989 39.782 48.438 39.784 48.921 39.729 49.423 39.729 49.927 39.729 50.411 39.784 50.862 39.782 51.284 39.78 51.61 39.723 51.88 39.558 52.389 39.246 52.855 40.012 52.346 40.323M61.295 31.08C60.266 31.92 59.391 33.046 58.744 34.373 58.482 34.911 57.678 34.518 57.937 33.98 58.632 32.547 59.585 31.314 60.728 30.384 61.193 30.007 61.758 30.703 61.295 31.08M66.098 26.893C66.678 27.037 66.461 27.907 65.881 27.764 65.481 27.665 65.108 27.812 64.527 28.876 64.673 29.055 64.715 29.361 64.617 29.708 64.463 30.245 64.023 30.689 63.64 30.659 62.796 30.594 63.333 29.341 63.386 29.221 64.008 27.643 64.855 26.585 66.098 26.893M32.491 26.893C33.733 26.586 34.579 27.643 35.2 29.222 35.251 29.342 35.788 30.594 34.946 30.66 34.561 30.69 34.124 30.245 33.967 29.709 33.869 29.362 33.912 29.056 34.059 28.877 33.479 27.814 33.106 27.666 32.705 27.765 32.125 27.907 31.911 27.036 32.491 26.893M44.801 31.78A5.8 5.8 0 0 1 46.19 30.699C46.71 30.404 47.153 31.184 46.633 31.479A4.9 4.9 0 0 0 45.457 32.39C45.051 32.829 44.395 32.218 44.801 31.78M53.129 32.391A4.9 4.9 0 0 0 51.955 31.48C51.435 31.185 51.879 30.404 52.398 30.7A5.8 5.8 0 0 1 53.785 31.781C54.193 32.218 53.535 32.829 53.129 32.391M61.016 23.731C61.553 25.032 61.539 25.236 60.286 24.598 57.434 23.147 52.077 25.895 51.229 24.603 50.833 24 51.258 23.383 52.041 23.383 53.928 23.384 59.455 19.938 61.016 23.731M54.625 26.585C54.625 26.467 54.643 26.353 54.672 26.245 54.295 26.294 54.065 26.36 53.908 26.435 53.592 26.588 53.431 26.953 53.222 27.216 52.851 27.684 52.148 27.125 52.521 26.657 52.675 26.465 52.777 26.292 52.892 26.142 53.656 25.154 55.529 25.261 56.568 25.261 58.043 25.261 59.064 25.689 59.605 26.639 59.902 27.158 59.123 27.603 58.828 27.083 58.555 26.605 58.051 26.265 57.078 26.179A1.26 1.26 0 1 1 54.625 26.585M56.328 29.597C55.734 29.529 55.838 28.638 56.433 28.706 56.747 28.743 57.099 28.711 57.441 28.599A2.3 2.3 0 0 0 58.316 28.089C58.754 27.68 59.365 28.336 58.929 28.744 58.599 29.054 58.189 29.3 57.716 29.453A3.3 3.3 0 0 1 56.328 29.597M37.793 23.731C39.355 19.938 44.883 23.384 46.77 23.384 47.553 23.384 47.979 24.001 47.582 24.604 46.734 25.896 41.377 23.148 38.525 24.599 37.272 25.236 37.26 25.032 37.793 23.731M41.665 26.585C41.665 26.443 41.688 26.307 41.731 26.179 40.758 26.265 40.254 26.606 39.983 27.083 39.686 27.603 38.907 27.158 39.204 26.639 39.747 25.688 40.766 25.261 42.243 25.261 43.282 25.261 45.153 25.154 45.919 26.142 46.034 26.292 46.136 26.464 46.288 26.657 46.661 27.125 45.958 27.684 45.587 27.216 45.376 26.953 45.22 26.589 44.901 26.435 44.747 26.36 44.514 26.294 44.137 26.245A1.26 1.26 0 1 1 41.665 26.585M42.481 29.597A3.3 3.3 0 0 1 41.092 29.453 3.2 3.2 0 0 1 39.879 28.744C39.443 28.336 40.059 27.681 40.494 28.089 40.726 28.307 41.021 28.487 41.369 28.599 41.711 28.711 42.06 28.743 42.377 28.706 42.971 28.638 43.073 29.529 42.481 29.597M37.436 31.08C36.973 30.703 37.54 30.007 38.002 30.385 39.145 31.315 40.098 32.548 40.791 33.981 41.055 34.519 40.246 34.911 39.986 34.374 39.34 33.046 38.465 31.92 37.436 31.08M49.336 24.337L49.731 23.844C50.106 23.378 50.805 23.938 50.432 24.406L49.688 25.337C49.493 25.582 49.184 25.582 48.987 25.337L48.243 24.406C47.868 23.939 48.569 23.379 48.944 23.844zM49.401 33.983C49.608 33.981 50.299 33.963 50.553 33.918 51.035 33.833 51.526 33.455 51.563 33.427 51.709 33.316 51.844 33.248 52.073 33.198 52.61 33.081 53.046 33.418 53.135 33.53 53.432 33.901 53.27 34.269 52.791 34.269H52.344C51.604 34.269 51.24 34.701 50.415 34.916 53.077 35.259 54.139 36.907 58.51 37.245 61.604 37.484 66.707 35.723 67.903 33.767 67.049 36.37 62.514 39.144 56.419 39.065 53.605 39.028 53.694 38.157 51.79 38.126H46.965C45.063 38.158 45.153 39.029 42.338 39.065 36.242 39.144 31.707 36.37 30.856 33.767 32.047 35.723 37.153 37.484 40.249 37.245 44.636 36.906 45.687 35.245 48.376 34.912 47.56 34.695 47.196 34.269 46.46 34.269H46.015C45.536 34.269 45.372 33.901 45.671 33.53 45.759 33.418 46.194 33.081 46.733 33.198 46.962 33.248 47.096 33.315 47.241 33.427 47.278 33.455 47.764 33.865 48.251 33.918 48.659 33.963 49.194 33.981 49.401 33.983"></path></svg></g></svg></g></svg></g><defs><mask></mask></defs><mask><g id="SvgjsG6447"><svg viewBox="0 0 395.52 138.10630449523327" height="138.10630449523327" width="395.52"><g><svg viewBox="0 0 513.667935140918 179.3607915149913" height="138.10630449523327" width="395.52"><g><rect width="7.400003813041301" height="179.3607915149913" x="91.3761935974021" y="0" fill="black" opacity="1" stroke-width="0" stroke="transparent" fill-opacity="1" class="rect-yte-0" rx="1%" id="SvgjsRect6446" data-palette-color="url(#b776adf5-3f01-461d-b7d4-a1df0d81b48f)"></rect></g><g transform="matrix(1,0,0,1,118.147935140918,0.44617112317160945)"><svg viewBox="0 0 395.52 178.46844926864807" height="178.46844926864807" width="395.52"><g id="SvgjsG6445"><svg viewBox="0 0 395.52 178.46844926864807" height="178.46844926864807" width="395.52" id="SvgjsSvg6444"><g><svg viewBox="0 0 395.52 178.46844926864807" height="178.46844926864807" width="395.52"><g transform="matrix(1,0,0,1,0,0)"><svg width="395.52" viewBox="2.018195219419123 -33.9 165.33180478058088 71.6" height="178.46844926864807" data-palette-color="url(#b776adf5-3f01-461d-b7d4-a1df0d81b48f)"><svg></svg><svg></svg><g class="wordmark-text-0" data-fill-palette-color="primary" id="SvgjsG6443"><path d="M8-32.1v0c0.967 0 1.91-0.027 2.83-0.08 0.913-0.047 1.87-0.087 2.87-0.12v0c0.133 0.133 0.193 0.39 0.18 0.77-0.02 0.387-0.08 0.647-0.18 0.78v0c-0.2 0-0.567 0.023-1.1 0.07-0.533 0.053-1.033 0.13-1.5 0.23-0.467 0.1-0.733 0.25-0.8 0.45v0c-0.1 0.333-0.157 0.767-0.17 1.3-0.02 0.533-0.03 1.117-0.03 1.75v0c0 0.1 0 0.2 0 0.3 0 0.1 0 0.2 0 0.3v0 9.7c0.367-0.233 0.85-0.617 1.45-1.15 0.6-0.533 1.26-1.143 1.98-1.83 0.713-0.68 1.403-1.337 2.07-1.97v0c1.267-1.267 2.257-2.26 2.97-2.98 0.72-0.713 1.313-1.337 1.78-1.87 0.467-0.533 0.95-1.117 1.45-1.75v0c0.167-0.2 0.327-0.45 0.48-0.75 0.147-0.3 0.22-0.567 0.22-0.8v0c0-0.367-0.173-0.627-0.52-0.78-0.353-0.147-0.737-0.23-1.15-0.25-0.42-0.013-0.73-0.02-0.93-0.02v0c-0.067 0-0.117 0-0.15 0v0c-0.067-0.167-0.1-0.4-0.1-0.7 0-0.3 0.033-0.567 0.1-0.8v0c0.9 0.033 1.833 0.083 2.8 0.15 0.967 0.067 1.9 0.1 2.8 0.1v0c1.067 0 1.977-0.033 2.73-0.1 0.747-0.067 1.603-0.117 2.57-0.15v0c0.067 0.133 0.1 0.417 0.1 0.85 0 0.433-0.067 0.65-0.2 0.65v0c-0.133 0-0.49 0.023-1.07 0.07-0.587 0.053-1.22 0.203-1.9 0.45-0.687 0.253-1.313 0.68-1.88 1.28v0c-1.4 1.533-2.69 2.89-3.87 4.07-1.187 1.187-2.363 2.337-3.53 3.45-1.167 1.12-2.467 2.363-3.9 3.73v0c-0.067 0.1-0.067 0.217 0 0.35v0c2.367 2.733 4.577 5.29 6.63 7.67 2.047 2.387 4.003 4.463 5.87 6.23v0c0.6 0.533 1.31 1.017 2.13 1.45 0.813 0.433 1.887 0.7 3.22 0.8v0c0.133 0.133 0.167 0.383 0.1 0.75-0.067 0.367-0.117 0.583-0.15 0.65v0c-1.633 0-3.073-0.05-4.32-0.15-1.253-0.1-2.13-0.233-2.63-0.4v0c-0.333-0.133-0.8-0.35-1.4-0.65-0.6-0.3-1.233-0.783-1.9-1.45v0c-0.333-0.367-1.023-1.127-2.07-2.28-1.053-1.147-2.347-2.587-3.88-4.32-1.533-1.733-3.217-3.65-5.05-5.75v0c-0.067-0.1-0.217-0.15-0.45-0.15v0c-0.133 0-0.267 0.033-0.4 0.1v0 9.1c0 0.1 0 0.2 0 0.3 0 0.1 0 0.2 0 0.3v0c0 0.633 0.01 1.207 0.03 1.72 0.013 0.52 0.07 0.947 0.17 1.28v0c0.067 0.167 0.333 0.317 0.8 0.45 0.467 0.133 0.967 0.223 1.5 0.27 0.533 0.053 0.9 0.08 1.1 0.08v0c0.1 0.133 0.16 0.39 0.18 0.77 0.013 0.387-0.047 0.647-0.18 0.78v0c-1-0.067-1.957-0.127-2.87-0.18-0.92-0.047-1.863-0.07-2.83-0.07v0c-0.933 0-1.883 0.023-2.85 0.07-0.967 0.053-1.95 0.113-2.95 0.18v0c-0.133-0.133-0.193-0.393-0.18-0.78 0.02-0.38 0.08-0.637 0.18-0.77v0c0.2 0 0.567-0.027 1.1-0.08 0.533-0.047 1.043-0.137 1.53-0.27 0.48-0.133 0.737-0.283 0.77-0.45v0c0.133-0.4 0.21-0.917 0.23-1.55 0.013-0.633 0.02-1.317 0.02-2.05v0-20.55c0-0.733-0.007-1.427-0.02-2.08-0.02-0.647-0.097-1.17-0.23-1.57v0c-0.033-0.2-0.29-0.35-0.77-0.45-0.487-0.1-0.997-0.177-1.53-0.23-0.533-0.047-0.9-0.07-1.1-0.07v0c-0.1-0.133-0.16-0.393-0.18-0.78-0.013-0.38 0.047-0.637 0.18-0.77v0c1 0.033 1.983 0.073 2.95 0.12 0.967 0.053 1.917 0.08 2.85 0.08zM47.05-21.4v0c1.767 0 3.1 0.367 4 1.1 0.9 0.733 1.51 1.867 1.83 3.4 0.313 1.533 0.47 3.483 0.47 5.85v0 5.4c0 0.733 0.01 1.417 0.03 2.05 0.013 0.633 0.087 1.15 0.22 1.55v0c0.067 0.167 0.31 0.317 0.73 0.45 0.413 0.133 0.863 0.223 1.35 0.27 0.48 0.053 0.82 0.08 1.02 0.08v0c0.1 0.133 0.16 0.367 0.18 0.7 0.013 0.333-0.047 0.567-0.18 0.7v0c-1-0.067-1.883-0.127-2.65-0.18-0.767-0.047-1.633-0.07-2.6-0.07v0c-0.933 0-1.773 0.023-2.52 0.07-0.753 0.053-1.63 0.113-2.63 0.18v0c-0.133-0.133-0.19-0.367-0.17-0.7 0.013-0.333 0.07-0.567 0.17-0.7v0c0.2 0 0.533-0.027 1-0.08 0.467-0.047 0.917-0.137 1.35-0.27 0.433-0.133 0.667-0.283 0.7-0.45v0c0.133-0.4 0.21-0.917 0.23-1.55 0.013-0.633 0.02-1.317 0.02-2.05v0-4.9c0-2.033-0.133-3.627-0.4-4.78-0.267-1.147-0.75-1.97-1.45-2.47-0.7-0.5-1.683-0.75-2.95-0.75v0c-0.6 0-1.257 0.19-1.97 0.57-0.72 0.387-1.347 0.797-1.88 1.23-0.533 0.433-0.8 0.733-0.8 0.9v0 10.2c0 0.733 0.01 1.417 0.03 2.05 0.013 0.633 0.087 1.15 0.22 1.55v0c0.067 0.167 0.31 0.317 0.73 0.45 0.413 0.133 0.863 0.223 1.35 0.27 0.48 0.053 0.82 0.08 1.02 0.08v0c0.1 0.133 0.16 0.367 0.18 0.7 0.013 0.333-0.047 0.567-0.18 0.7v0c-1-0.067-1.883-0.127-2.65-0.18-0.767-0.047-1.633-0.07-2.6-0.07v0c-0.933 0-1.773 0.023-2.52 0.07-0.753 0.053-1.63 0.113-2.63 0.18v0c-0.133-0.133-0.19-0.367-0.17-0.7 0.013-0.333 0.07-0.567 0.17-0.7v0c0.2 0 0.533-0.027 1-0.08 0.467-0.047 0.917-0.137 1.35-0.27 0.433-0.133 0.667-0.283 0.7-0.45v0c0.133-0.4 0.21-0.917 0.23-1.55 0.013-0.633 0.02-1.317 0.02-2.05v0-21.6c0-0.333-0.007-0.767-0.02-1.3-0.02-0.533-0.097-0.95-0.23-1.25v0c-0.133-0.367-0.49-0.6-1.07-0.7-0.587-0.1-1.213-0.15-1.88-0.15v0c-0.033 0-0.057-0.21-0.07-0.63-0.02-0.413 0.02-0.637 0.12-0.67v0c1.233-0.133 2.433-0.377 3.6-0.73 1.167-0.347 2.267-0.753 3.3-1.22v0c0.133 0 0.26 0.09 0.38 0.27 0.113 0.187 0.17 0.363 0.17 0.53v0c0 0-0.09 0.367-0.27 1.1-0.187 0.733-0.28 1.783-0.28 3.15v0 11.05c0 0.067 0.05 0.1 0.15 0.1v0c0.033 0 0.083-0.033 0.15-0.1v0c0.333-0.367 0.877-0.833 1.63-1.4 0.747-0.567 1.57-1.077 2.47-1.53 0.9-0.447 1.733-0.67 2.5-0.67zM68.95-21.3v0c0.933 0 1.81 0.3 2.63 0.9 0.813 0.6 1.47 1.4 1.97 2.4 0.5 1 0.75 2.133 0.75 3.4v0 10.05c0 0.633 0.117 1.173 0.35 1.62 0.233 0.453 0.617 0.68 1.15 0.68v0c0.467 0 0.833-0.1 1.1-0.3 0.267-0.2 0.433-0.317 0.5-0.35v0c0.067 0 0.117 0.05 0.15 0.15 0.033 0.1 0.05 0.183 0.05 0.25v0c0 0.367-0.083 0.683-0.25 0.95v0c-0.2 0.167-0.523 0.4-0.97 0.7-0.453 0.3-0.92 0.567-1.4 0.8-0.487 0.233-0.913 0.35-1.28 0.35v0c-0.7 0-1.323-0.35-1.87-1.05-0.553-0.7-0.913-1.417-1.08-2.15v0c-0.133 0.133-0.44 0.383-0.92 0.75-0.487 0.367-1.047 0.74-1.68 1.12-0.633 0.387-1.257 0.72-1.87 1-0.62 0.287-1.147 0.43-1.58 0.43v0c-1.6 0-2.95-0.543-4.05-1.63-1.1-1.08-1.65-2.403-1.65-3.97v0c0-1 0.277-1.86 0.83-2.58 0.547-0.713 1.087-1.17 1.62-1.37v0c0.933-0.333 1.977-0.693 3.13-1.08 1.147-0.38 2.22-0.753 3.22-1.12 1-0.367 1.733-0.65 2.2-0.85v0c0.267-0.1 0.433-0.227 0.5-0.38 0.067-0.147 0.1-0.437 0.1-0.87v0-1.3c0-0.733-0.183-1.46-0.55-2.18-0.367-0.713-0.867-1.313-1.5-1.8-0.633-0.48-1.35-0.72-2.15-0.72v0c-0.833 0-1.45 0.267-1.85 0.8-0.4 0.533-0.683 1.283-0.85 2.25v0c-0.3 1.567-1.067 2.35-2.3 2.35v0c-0.533 0-0.94-0.217-1.22-0.65-0.287-0.433-0.43-0.9-0.43-1.4v0c0-0.1 0.033-0.293 0.1-0.58 0.067-0.28 0.15-0.487 0.25-0.62v0c0.5-0.467 1.217-1.017 2.15-1.65 0.933-0.633 1.99-1.183 3.17-1.65 1.187-0.467 2.363-0.7 3.53-0.7zM66.35-2.25v0c0.567 0 1.183-0.133 1.85-0.4 0.667-0.267 1.233-0.56 1.7-0.88 0.467-0.313 0.7-0.553 0.7-0.72v0-6.65c-0.633 0.2-1.433 0.45-2.4 0.75-0.967 0.3-1.683 0.533-2.15 0.7v0c-0.867 0.333-1.583 0.817-2.15 1.45-0.567 0.633-0.85 1.417-0.85 2.35v0c0 0.9 0.317 1.69 0.95 2.37 0.633 0.687 1.417 1.03 2.35 1.03zM93.95-21.4v0c1.767 0 3.1 0.367 4 1.1 0.9 0.733 1.51 1.867 1.83 3.4 0.313 1.533 0.47 3.483 0.47 5.85v0 5.4c0 0.733 0.01 1.417 0.03 2.05 0.013 0.633 0.087 1.15 0.22 1.55v0c0.067 0.167 0.31 0.317 0.73 0.45 0.413 0.133 0.853 0.223 1.32 0.27 0.467 0.053 0.8 0.08 1 0.08v0c0.1 0.133 0.16 0.367 0.18 0.7 0.013 0.333-0.047 0.567-0.18 0.7v0c-1-0.067-1.873-0.127-2.62-0.18-0.753-0.047-1.613-0.07-2.58-0.07v0c-0.933 0-1.783 0.023-2.55 0.07-0.767 0.053-1.65 0.113-2.65 0.18v0c-0.133-0.133-0.19-0.367-0.17-0.7 0.013-0.333 0.07-0.567 0.17-0.7v0c0.2 0 0.543-0.027 1.03-0.08 0.48-0.047 0.937-0.137 1.37-0.27 0.433-0.133 0.667-0.283 0.7-0.45v0c0.133-0.4 0.21-0.917 0.23-1.55 0.013-0.633 0.02-1.317 0.02-2.05v0-4.9c0-2.033-0.133-3.627-0.4-4.78-0.267-1.147-0.75-1.97-1.45-2.47-0.7-0.5-1.683-0.75-2.95-0.75v0c-0.6 0-1.257 0.19-1.97 0.57-0.72 0.387-1.347 0.797-1.88 1.23-0.533 0.433-0.8 0.733-0.8 0.9v0 10.2c0 0.733 0.01 1.417 0.03 2.05 0.013 0.633 0.087 1.15 0.22 1.55v0c0.067 0.167 0.31 0.317 0.73 0.45 0.413 0.133 0.853 0.223 1.32 0.27 0.467 0.053 0.8 0.08 1 0.08v0c0.1 0.133 0.16 0.367 0.18 0.7 0.013 0.333-0.047 0.567-0.18 0.7v0c-1-0.067-1.873-0.127-2.62-0.18-0.753-0.047-1.613-0.07-2.58-0.07v0c-0.933 0-1.783 0.023-2.55 0.07-0.767 0.053-1.65 0.113-2.65 0.18v0c-0.133-0.133-0.19-0.367-0.17-0.7 0.013-0.333 0.07-0.567 0.17-0.7v0c0.2 0 0.543-0.027 1.03-0.08 0.48-0.047 0.937-0.137 1.37-0.27 0.433-0.133 0.667-0.283 0.7-0.45v0c0.133-0.4 0.21-0.917 0.23-1.55 0.013-0.633 0.02-1.317 0.02-2.05v0-8.9c0-0.333-0.007-0.8-0.02-1.4-0.02-0.6-0.097-1.05-0.23-1.35v0c-0.1-0.3-0.383-0.51-0.85-0.63-0.467-0.113-0.933-0.18-1.4-0.2-0.467-0.013-0.767-0.02-0.9-0.02v0c-0.033-0.067-0.067-0.267-0.1-0.6-0.033-0.333 0-0.567 0.1-0.7v0c1.267-0.167 2.5-0.417 3.7-0.75 1.2-0.333 2.283-0.767 3.25-1.3v0c0.133 0 0.26 0.1 0.38 0.3 0.113 0.2 0.17 0.367 0.17 0.5v0c0 0.1-0.023 0.357-0.07 0.77-0.053 0.42-0.107 0.83-0.16 1.23-0.047 0.4-0.07 0.667-0.07 0.8v0c0 0.133 0.033 0.2 0.1 0.2v0c0.033 0 0.083-0.033 0.15-0.1v0c0.333-0.367 0.877-0.833 1.63-1.4 0.747-0.567 1.57-1.077 2.47-1.53 0.9-0.447 1.733-0.67 2.5-0.67zM115.9-21.3v0c0.933 0 1.81 0.3 2.63 0.9 0.813 0.6 1.47 1.4 1.97 2.4 0.5 1 0.75 2.133 0.75 3.4v0 10.05c0 0.633 0.117 1.173 0.35 1.62 0.233 0.453 0.617 0.68 1.15 0.68v0c0.467 0 0.833-0.1 1.1-0.3 0.267-0.2 0.433-0.317 0.5-0.35v0c0.067 0 0.117 0.05 0.15 0.15 0.033 0.1 0.05 0.183 0.05 0.25v0c0 0.367-0.083 0.683-0.25 0.95v0c-0.2 0.167-0.523 0.4-0.97 0.7-0.453 0.3-0.92 0.567-1.4 0.8-0.487 0.233-0.913 0.35-1.28 0.35v0c-0.7 0-1.323-0.35-1.87-1.05-0.553-0.7-0.913-1.417-1.08-2.15v0c-0.133 0.133-0.44 0.383-0.92 0.75-0.487 0.367-1.047 0.74-1.68 1.12-0.633 0.387-1.257 0.72-1.87 1-0.62 0.287-1.147 0.43-1.58 0.43v0c-1.6 0-2.95-0.543-4.05-1.63-1.1-1.08-1.65-2.403-1.65-3.97v0c0-1 0.277-1.86 0.83-2.58 0.547-0.713 1.087-1.17 1.62-1.37v0c0.933-0.333 1.977-0.693 3.13-1.08 1.147-0.38 2.22-0.753 3.22-1.12 1-0.367 1.733-0.65 2.2-0.85v0c0.267-0.1 0.433-0.227 0.5-0.38 0.067-0.147 0.1-0.437 0.1-0.87v0-1.3c0-0.733-0.183-1.46-0.55-2.18-0.367-0.713-0.867-1.313-1.5-1.8-0.633-0.48-1.35-0.72-2.15-0.72v0c-0.833 0-1.45 0.267-1.85 0.8-0.4 0.533-0.683 1.283-0.85 2.25v0c-0.3 1.567-1.067 2.35-2.3 2.35v0c-0.533 0-0.94-0.217-1.22-0.65-0.287-0.433-0.43-0.9-0.43-1.4v0c0-0.1 0.033-0.293 0.1-0.58 0.067-0.28 0.15-0.487 0.25-0.62v0c0.5-0.467 1.217-1.017 2.15-1.65 0.933-0.633 1.993-1.183 3.18-1.65 1.18-0.467 2.353-0.7 3.52-0.7zM113.3-2.25v0c0.567 0 1.183-0.133 1.85-0.4 0.667-0.267 1.233-0.56 1.7-0.88 0.467-0.313 0.7-0.553 0.7-0.72v0-6.65c-0.633 0.2-1.433 0.45-2.4 0.75-0.967 0.3-1.683 0.533-2.15 0.7v0c-0.867 0.333-1.583 0.817-2.15 1.45-0.567 0.633-0.85 1.417-0.85 2.35v0c0 0.9 0.317 1.69 0.95 2.37 0.633 0.687 1.417 1.03 2.35 1.03z" fill="black" fill-rule="nonzero" stroke="none" stroke-width="1" stroke-linecap="butt" stroke-linejoin="miter" stroke-miterlimit="10" stroke-dasharray="" stroke-dashoffset="0" font-family="none" font-weight="none" font-size="none" text-anchor="none" style="mix-blend-mode: normal" opacity="1"></path><path transform="translate(0,37.3)" d="M8-32.1v0c0.967 0 1.91-0.027 2.83-0.08 0.913-0.047 1.87-0.087 2.87-0.12v0c0.133 0.133 0.193 0.39 0.18 0.77-0.02 0.387-0.08 0.647-0.18 0.78v0c-0.2 0-0.567 0.023-1.1 0.07-0.533 0.053-1.033 0.13-1.5 0.23-0.467 0.1-0.733 0.25-0.8 0.45v0c-0.1 0.333-0.157 0.767-0.17 1.3-0.02 0.533-0.03 1.117-0.03 1.75v0c0 0.1 0 0.2 0 0.3 0 0.1 0 0.2 0 0.3v0 9.7c0.367-0.233 0.85-0.617 1.45-1.15 0.6-0.533 1.26-1.143 1.98-1.83 0.713-0.68 1.403-1.337 2.07-1.97v0c1.267-1.267 2.257-2.26 2.97-2.98 0.72-0.713 1.313-1.337 1.78-1.87 0.467-0.533 0.95-1.117 1.45-1.75v0c0.167-0.2 0.327-0.45 0.48-0.75 0.147-0.3 0.22-0.567 0.22-0.8v0c0-0.367-0.173-0.627-0.52-0.78-0.353-0.147-0.737-0.23-1.15-0.25-0.42-0.013-0.73-0.02-0.93-0.02v0c-0.067 0-0.117 0-0.15 0v0c-0.067-0.167-0.1-0.4-0.1-0.7 0-0.3 0.033-0.567 0.1-0.8v0c0.9 0.033 1.833 0.083 2.8 0.15 0.967 0.067 1.9 0.1 2.8 0.1v0c1.067 0 1.977-0.033 2.73-0.1 0.747-0.067 1.603-0.117 2.57-0.15v0c0.067 0.133 0.1 0.417 0.1 0.85 0 0.433-0.067 0.65-0.2 0.65v0c-0.133 0-0.49 0.023-1.07 0.07-0.587 0.053-1.22 0.203-1.9 0.45-0.687 0.253-1.313 0.68-1.88 1.28v0c-1.4 1.533-2.69 2.89-3.87 4.07-1.187 1.187-2.363 2.337-3.53 3.45-1.167 1.12-2.467 2.363-3.9 3.73v0c-0.067 0.1-0.067 0.217 0 0.35v0c2.367 2.733 4.577 5.29 6.63 7.67 2.047 2.387 4.003 4.463 5.87 6.23v0c0.6 0.533 1.31 1.017 2.13 1.45 0.813 0.433 1.887 0.7 3.22 0.8v0c0.133 0.133 0.167 0.383 0.1 0.75-0.067 0.367-0.117 0.583-0.15 0.65v0c-1.633 0-3.073-0.05-4.32-0.15-1.253-0.1-2.13-0.233-2.63-0.4v0c-0.333-0.133-0.8-0.35-1.4-0.65-0.6-0.3-1.233-0.783-1.9-1.45v0c-0.333-0.367-1.023-1.127-2.07-2.28-1.053-1.147-2.347-2.587-3.88-4.32-1.533-1.733-3.217-3.65-5.05-5.75v0c-0.067-0.1-0.217-0.15-0.45-0.15v0c-0.133 0-0.267 0.033-0.4 0.1v0 9.1c0 0.1 0 0.2 0 0.3 0 0.1 0 0.2 0 0.3v0c0 0.633 0.01 1.207 0.03 1.72 0.013 0.52 0.07 0.947 0.17 1.28v0c0.067 0.167 0.333 0.317 0.8 0.45 0.467 0.133 0.967 0.223 1.5 0.27 0.533 0.053 0.9 0.08 1.1 0.08v0c0.1 0.133 0.16 0.39 0.18 0.77 0.013 0.387-0.047 0.647-0.18 0.78v0c-1-0.067-1.957-0.127-2.87-0.18-0.92-0.047-1.863-0.07-2.83-0.07v0c-0.933 0-1.883 0.023-2.85 0.07-0.967 0.053-1.95 0.113-2.95 0.18v0c-0.133-0.133-0.193-0.393-0.18-0.78 0.02-0.38 0.08-0.637 0.18-0.77v0c0.2 0 0.567-0.027 1.1-0.08 0.533-0.047 1.043-0.137 1.53-0.27 0.48-0.133 0.737-0.283 0.77-0.45v0c0.133-0.4 0.21-0.917 0.23-1.55 0.013-0.633 0.02-1.317 0.02-2.05v0-20.55c0-0.733-0.007-1.427-0.02-2.08-0.02-0.647-0.097-1.17-0.23-1.57v0c-0.033-0.2-0.29-0.35-0.77-0.45-0.487-0.1-0.997-0.177-1.53-0.23-0.533-0.047-0.9-0.07-1.1-0.07v0c-0.1-0.133-0.16-0.393-0.18-0.78-0.013-0.38 0.047-0.637 0.18-0.77v0c1 0.033 1.983 0.073 2.95 0.12 0.967 0.053 1.917 0.08 2.85 0.08zM47.05-21.4v0c1.767 0 3.1 0.367 4 1.1 0.9 0.733 1.51 1.867 1.83 3.4 0.313 1.533 0.47 3.483 0.47 5.85v0 5.4c0 0.733 0.01 1.417 0.03 2.05 0.013 0.633 0.087 1.15 0.22 1.55v0c0.067 0.167 0.31 0.317 0.73 0.45 0.413 0.133 0.863 0.223 1.35 0.27 0.48 0.053 0.82 0.08 1.02 0.08v0c0.1 0.133 0.16 0.367 0.18 0.7 0.013 0.333-0.047 0.567-0.18 0.7v0c-1-0.067-1.883-0.127-2.65-0.18-0.767-0.047-1.633-0.07-2.6-0.07v0c-0.933 0-1.773 0.023-2.52 0.07-0.753 0.053-1.63 0.113-2.63 0.18v0c-0.133-0.133-0.19-0.367-0.17-0.7 0.013-0.333 0.07-0.567 0.17-0.7v0c0.2 0 0.533-0.027 1-0.08 0.467-0.047 0.917-0.137 1.35-0.27 0.433-0.133 0.667-0.283 0.7-0.45v0c0.133-0.4 0.21-0.917 0.23-1.55 0.013-0.633 0.02-1.317 0.02-2.05v0-4.9c0-2.033-0.133-3.627-0.4-4.78-0.267-1.147-0.75-1.97-1.45-2.47-0.7-0.5-1.683-0.75-2.95-0.75v0c-0.6 0-1.257 0.19-1.97 0.57-0.72 0.387-1.347 0.797-1.88 1.23-0.533 0.433-0.8 0.733-0.8 0.9v0 10.2c0 0.733 0.01 1.417 0.03 2.05 0.013 0.633 0.087 1.15 0.22 1.55v0c0.067 0.167 0.31 0.317 0.73 0.45 0.413 0.133 0.863 0.223 1.35 0.27 0.48 0.053 0.82 0.08 1.02 0.08v0c0.1 0.133 0.16 0.367 0.18 0.7 0.013 0.333-0.047 0.567-0.18 0.7v0c-1-0.067-1.883-0.127-2.65-0.18-0.767-0.047-1.633-0.07-2.6-0.07v0c-0.933 0-1.773 0.023-2.52 0.07-0.753 0.053-1.63 0.113-2.63 0.18v0c-0.133-0.133-0.19-0.367-0.17-0.7 0.013-0.333 0.07-0.567 0.17-0.7v0c0.2 0 0.533-0.027 1-0.08 0.467-0.047 0.917-0.137 1.35-0.27 0.433-0.133 0.667-0.283 0.7-0.45v0c0.133-0.4 0.21-0.917 0.23-1.55 0.013-0.633 0.02-1.317 0.02-2.05v0-21.6c0-0.333-0.007-0.767-0.02-1.3-0.02-0.533-0.097-0.95-0.23-1.25v0c-0.133-0.367-0.49-0.6-1.07-0.7-0.587-0.1-1.213-0.15-1.88-0.15v0c-0.033 0-0.057-0.21-0.07-0.63-0.02-0.413 0.02-0.637 0.12-0.67v0c1.233-0.133 2.433-0.377 3.6-0.73 1.167-0.347 2.267-0.753 3.3-1.22v0c0.133 0 0.26 0.09 0.38 0.27 0.113 0.187 0.17 0.363 0.17 0.53v0c0 0-0.09 0.367-0.27 1.1-0.187 0.733-0.28 1.783-0.28 3.15v0 11.05c0 0.067 0.05 0.1 0.15 0.1v0c0.033 0 0.083-0.033 0.15-0.1v0c0.333-0.367 0.877-0.833 1.63-1.4 0.747-0.567 1.57-1.077 2.47-1.53 0.9-0.447 1.733-0.67 2.5-0.67zM68.95-21.3v0c0.933 0 1.81 0.3 2.63 0.9 0.813 0.6 1.47 1.4 1.97 2.4 0.5 1 0.75 2.133 0.75 3.4v0 10.05c0 0.633 0.117 1.173 0.35 1.62 0.233 0.453 0.617 0.68 1.15 0.68v0c0.467 0 0.833-0.1 1.1-0.3 0.267-0.2 0.433-0.317 0.5-0.35v0c0.067 0 0.117 0.05 0.15 0.15 0.033 0.1 0.05 0.183 0.05 0.25v0c0 0.367-0.083 0.683-0.25 0.95v0c-0.2 0.167-0.523 0.4-0.97 0.7-0.453 0.3-0.92 0.567-1.4 0.8-0.487 0.233-0.913 0.35-1.28 0.35v0c-0.7 0-1.323-0.35-1.87-1.05-0.553-0.7-0.913-1.417-1.08-2.15v0c-0.133 0.133-0.44 0.383-0.92 0.75-0.487 0.367-1.047 0.74-1.68 1.12-0.633 0.387-1.257 0.72-1.87 1-0.62 0.287-1.147 0.43-1.58 0.43v0c-1.6 0-2.95-0.543-4.05-1.63-1.1-1.08-1.65-2.403-1.65-3.97v0c0-1 0.277-1.86 0.83-2.58 0.547-0.713 1.087-1.17 1.62-1.37v0c0.933-0.333 1.977-0.693 3.13-1.08 1.147-0.38 2.22-0.753 3.22-1.12 1-0.367 1.733-0.65 2.2-0.85v0c0.267-0.1 0.433-0.227 0.5-0.38 0.067-0.147 0.1-0.437 0.1-0.87v0-1.3c0-0.733-0.183-1.46-0.55-2.18-0.367-0.713-0.867-1.313-1.5-1.8-0.633-0.48-1.35-0.72-2.15-0.72v0c-0.833 0-1.45 0.267-1.85 0.8-0.4 0.533-0.683 1.283-0.85 2.25v0c-0.3 1.567-1.067 2.35-2.3 2.35v0c-0.533 0-0.94-0.217-1.22-0.65-0.287-0.433-0.43-0.9-0.43-1.4v0c0-0.1 0.033-0.293 0.1-0.58 0.067-0.28 0.15-0.487 0.25-0.62v0c0.5-0.467 1.217-1.017 2.15-1.65 0.933-0.633 1.99-1.183 3.17-1.65 1.187-0.467 2.363-0.7 3.53-0.7zM66.35-2.25v0c0.567 0 1.183-0.133 1.85-0.4 0.667-0.267 1.233-0.56 1.7-0.88 0.467-0.313 0.7-0.553 0.7-0.72v0-6.65c-0.633 0.2-1.433 0.45-2.4 0.75-0.967 0.3-1.683 0.533-2.15 0.7v0c-0.867 0.333-1.583 0.817-2.15 1.45-0.567 0.633-0.85 1.417-0.85 2.35v0c0 0.9 0.317 1.69 0.95 2.37 0.633 0.687 1.417 1.03 2.35 1.03zM85.45-21.05v0h6.25c1.333 0 2.41-0.033 3.23-0.1 0.813-0.067 1.72-0.167 2.72-0.3v0c0.1 0.167 0.15 0.34 0.15 0.52 0 0.187 0 0.363 0 0.53v0c0 0.067 0 0.117 0 0.15v0c0 0-0.233 0.333-0.7 1-0.467 0.667-1.083 1.55-1.85 2.65-0.767 1.1-1.607 2.3-2.52 3.6-0.92 1.3-1.847 2.607-2.78 3.92-0.933 1.32-1.783 2.537-2.55 3.65-0.767 1.12-1.383 2.013-1.85 2.68-0.467 0.667-0.7 1.017-0.7 1.05v0h6.85c1.5 0 2.693-0.477 3.58-1.43 0.88-0.947 1.47-1.937 1.77-2.97v0c0.033-0.2 0.15-0.3 0.35-0.3v0c0.5 0 0.917 0.2 1.25 0.6v0c0 0-0.133 0.323-0.4 0.97-0.267 0.653-0.567 1.43-0.9 2.33-0.333 0.9-0.633 1.733-0.9 2.5v0h-15.85c-0.167-0.067-0.333-0.2-0.5-0.4-0.167-0.2-0.25-0.4-0.25-0.6v0c0-0.033 0-0.083 0-0.15 0-0.067 0.017-0.117 0.05-0.15v0l12.55-18.05-6.85-0.05c-0.933 0-1.64 0.223-2.12 0.67-0.487 0.453-0.84 0.953-1.06 1.5-0.213 0.553-0.387 0.98-0.52 1.28v0c-0.133 0.267-0.483 0.4-1.05 0.4v0c-0.367 0-0.55-0.033-0.55-0.1v0c0.1-0.367 0.243-1.1 0.43-2.2 0.18-1.1 0.303-2.3 0.37-3.6v0c0 0 0.243 0.033 0.73 0.1 0.48 0.067 1.063 0.133 1.75 0.2 0.68 0.067 1.303 0.1 1.87 0.1zM111.75-21.3v0c0.933 0 1.81 0.3 2.63 0.9 0.813 0.6 1.47 1.4 1.97 2.4 0.5 1 0.75 2.133 0.75 3.4v0 10.05c0 0.633 0.117 1.173 0.35 1.62 0.233 0.453 0.617 0.68 1.15 0.68v0c0.467 0 0.833-0.1 1.1-0.3 0.267-0.2 0.433-0.317 0.5-0.35v0c0.067 0 0.117 0.05 0.15 0.15 0.033 0.1 0.05 0.183 0.05 0.25v0c0 0.367-0.083 0.683-0.25 0.95v0c-0.2 0.167-0.527 0.4-0.98 0.7-0.447 0.3-0.91 0.567-1.39 0.8-0.487 0.233-0.913 0.35-1.28 0.35v0c-0.7 0-1.323-0.35-1.87-1.05-0.553-0.7-0.913-1.417-1.08-2.15v0c-0.133 0.133-0.44 0.383-0.92 0.75-0.487 0.367-1.047 0.74-1.68 1.12-0.633 0.387-1.257 0.72-1.87 1-0.62 0.287-1.147 0.43-1.58 0.43v0c-1.6 0-2.95-0.543-4.05-1.63-1.1-1.08-1.65-2.403-1.65-3.97v0c0-1 0.277-1.86 0.83-2.58 0.547-0.713 1.087-1.17 1.62-1.37v0c0.933-0.333 1.977-0.693 3.13-1.08 1.147-0.38 2.22-0.753 3.22-1.12 1-0.367 1.733-0.65 2.2-0.85v0c0.267-0.1 0.433-0.227 0.5-0.38 0.067-0.147 0.1-0.437 0.1-0.87v0-1.3c0-0.733-0.183-1.46-0.55-2.18-0.367-0.713-0.867-1.313-1.5-1.8-0.633-0.48-1.35-0.72-2.15-0.72v0c-0.833 0-1.45 0.267-1.85 0.8-0.4 0.533-0.683 1.283-0.85 2.25v0c-0.3 1.567-1.067 2.35-2.3 2.35v0c-0.533 0-0.943-0.217-1.23-0.65-0.28-0.433-0.42-0.9-0.42-1.4v0c0-0.1 0.033-0.293 0.1-0.58 0.067-0.28 0.15-0.487 0.25-0.62v0c0.5-0.467 1.217-1.017 2.15-1.65 0.933-0.633 1.99-1.183 3.17-1.65 1.187-0.467 2.363-0.7 3.53-0.7zM109.15-2.25v0c0.567 0 1.183-0.133 1.85-0.4 0.667-0.267 1.233-0.56 1.7-0.88 0.467-0.313 0.7-0.553 0.7-0.72v0-6.65c-0.633 0.2-1.433 0.45-2.4 0.75-0.967 0.3-1.683 0.533-2.15 0.7v0c-0.867 0.333-1.583 0.817-2.15 1.45-0.567 0.633-0.85 1.417-0.85 2.35v0c0 0.9 0.317 1.69 0.95 2.37 0.633 0.687 1.417 1.03 2.35 1.03zM136.75-21.4v0c1.767 0 3.1 0.367 4 1.1 0.9 0.733 1.507 1.867 1.82 3.4 0.32 1.533 0.48 3.483 0.48 5.85v0 5.4c0 0.733 0.007 1.417 0.02 2.05 0.02 0.633 0.097 1.15 0.23 1.55v0c0.067 0.167 0.31 0.317 0.73 0.45 0.413 0.133 0.853 0.223 1.32 0.27 0.467 0.053 0.8 0.08 1 0.08v0c0.1 0.133 0.16 0.367 0.18 0.7 0.013 0.333-0.047 0.567-0.18 0.7v0c-1-0.067-1.877-0.127-2.63-0.18-0.747-0.047-1.603-0.07-2.57-0.07v0c-0.933 0-1.783 0.023-2.55 0.07-0.767 0.053-1.65 0.113-2.65 0.18v0c-0.133-0.133-0.19-0.367-0.17-0.7 0.013-0.333 0.07-0.567 0.17-0.7v0c0.2 0 0.54-0.027 1.02-0.08 0.487-0.047 0.947-0.137 1.38-0.27 0.433-0.133 0.667-0.283 0.7-0.45v0c0.133-0.4 0.21-0.917 0.23-1.55 0.013-0.633 0.02-1.317 0.02-2.05v0-4.9c0-2.033-0.133-3.627-0.4-4.78-0.267-1.147-0.75-1.97-1.45-2.47-0.7-0.5-1.683-0.75-2.95-0.75v0c-0.6 0-1.257 0.19-1.97 0.57-0.72 0.387-1.347 0.797-1.88 1.23-0.533 0.433-0.8 0.733-0.8 0.9v0 10.2c0 0.733 0.01 1.417 0.03 2.05 0.013 0.633 0.087 1.15 0.22 1.55v0c0.067 0.167 0.307 0.317 0.72 0.45 0.42 0.133 0.863 0.223 1.33 0.27 0.467 0.053 0.8 0.08 1 0.08v0c0.1 0.133 0.157 0.367 0.17 0.7 0.02 0.333-0.037 0.567-0.17 0.7v0c-1-0.067-1.873-0.127-2.62-0.18-0.753-0.047-1.613-0.07-2.58-0.07v0c-0.933 0-1.783 0.023-2.55 0.07-0.767 0.053-1.65 0.113-2.65 0.18v0c-0.133-0.133-0.19-0.367-0.17-0.7 0.013-0.333 0.07-0.567 0.17-0.7v0c0.2 0 0.543-0.027 1.03-0.08 0.48-0.047 0.937-0.137 1.37-0.27 0.433-0.133 0.667-0.283 0.7-0.45v0c0.133-0.4 0.21-0.917 0.23-1.55 0.013-0.633 0.02-1.317 0.02-2.05v0-8.9c0-0.333-0.007-0.8-0.02-1.4-0.02-0.6-0.097-1.05-0.23-1.35v0c-0.1-0.3-0.383-0.51-0.85-0.63-0.467-0.113-0.933-0.18-1.4-0.2-0.467-0.013-0.767-0.02-0.9-0.02v0c-0.033-0.067-0.067-0.267-0.1-0.6-0.033-0.333 0-0.567 0.1-0.7v0c1.267-0.167 2.5-0.417 3.7-0.75 1.2-0.333 2.283-0.767 3.25-1.3v0c0.133 0 0.26 0.1 0.38 0.3 0.113 0.2 0.17 0.367 0.17 0.5v0c0 0.1-0.023 0.357-0.07 0.77-0.053 0.42-0.107 0.83-0.16 1.23-0.047 0.4-0.07 0.667-0.07 0.8v0c0 0.133 0.033 0.2 0.1 0.2v0c0.033 0 0.083-0.033 0.15-0.1v0c0.333-0.367 0.877-0.833 1.63-1.4 0.747-0.567 1.57-1.077 2.47-1.53 0.9-0.447 1.733-0.67 2.5-0.67zM158.7-21.3v0c0.933 0 1.807 0.3 2.62 0.9 0.82 0.6 1.48 1.4 1.98 2.4 0.5 1 0.75 2.133 0.75 3.4v0 10.05c0 0.633 0.117 1.173 0.35 1.62 0.233 0.453 0.617 0.68 1.15 0.68v0c0.467 0 0.833-0.1 1.1-0.3 0.267-0.2 0.433-0.317 0.5-0.35v0c0.067 0 0.117 0.05 0.15 0.15 0.033 0.1 0.05 0.183 0.05 0.25v0c0 0.367-0.083 0.683-0.25 0.95v0c-0.2 0.167-0.523 0.4-0.97 0.7-0.453 0.3-0.923 0.567-1.41 0.8-0.48 0.233-0.903 0.35-1.27 0.35v0c-0.7 0-1.327-0.35-1.88-1.05-0.547-0.7-0.903-1.417-1.07-2.15v0c-0.133 0.133-0.443 0.383-0.93 0.75-0.48 0.367-1.037 0.74-1.67 1.12-0.633 0.387-1.26 0.72-1.88 1-0.613 0.287-1.137 0.43-1.57 0.43v0c-1.6 0-2.95-0.543-4.05-1.63-1.1-1.08-1.65-2.403-1.65-3.97v0c0-1 0.273-1.86 0.82-2.58 0.553-0.713 1.097-1.17 1.63-1.37v0c0.933-0.333 1.973-0.693 3.12-1.08 1.153-0.38 2.23-0.753 3.23-1.12 1-0.367 1.733-0.65 2.2-0.85v0c0.267-0.1 0.433-0.227 0.5-0.38 0.067-0.147 0.1-0.437 0.1-0.87v0-1.3c0-0.733-0.183-1.46-0.55-2.18-0.367-0.713-0.867-1.313-1.5-1.8-0.633-0.48-1.35-0.72-2.15-0.72v0c-0.833 0-1.45 0.267-1.85 0.8-0.4 0.533-0.683 1.283-0.85 2.25v0c-0.3 1.567-1.067 2.35-2.3 2.35v0c-0.533 0-0.943-0.217-1.23-0.65-0.28-0.433-0.42-0.9-0.42-1.4v0c0-0.1 0.033-0.293 0.1-0.58 0.067-0.28 0.15-0.487 0.25-0.62v0c0.5-0.467 1.217-1.017 2.15-1.65 0.933-0.633 1.99-1.183 3.17-1.65 1.187-0.467 2.363-0.7 3.53-0.7zM156.1-2.25v0c0.567 0 1.183-0.133 1.85-0.4 0.667-0.267 1.233-0.56 1.7-0.88 0.467-0.313 0.7-0.553 0.7-0.72v0-6.65c-0.633 0.2-1.433 0.45-2.4 0.75-0.967 0.3-1.683 0.533-2.15 0.7v0c-0.867 0.333-1.583 0.817-2.15 1.45-0.567 0.633-0.85 1.417-0.85 2.35v0c0 0.9 0.317 1.69 0.95 2.37 0.633 0.687 1.417 1.03 2.35 1.03z" fill="black" fill-rule="nonzero" stroke="none" stroke-width="1" stroke-linecap="butt" stroke-linejoin="miter" stroke-miterlimit="10" stroke-dasharray="" stroke-dashoffset="0" font-family="none" font-weight="none" font-size="none" text-anchor="none" style="mix-blend-mode: normal" opacity="1"></path></g></svg></g></svg></g></svg></g></svg></g><g transform="matrix(1,0,0,1,0,0.44617112317160945)"><svg viewBox="0 0 72.00445586692749 178.46844926864807" height="178.46844926864807" width="72.00445586692749"><g><svg xmlns="http://www.w3.org/2000/svg" xmlns:xlink="http://www.w3.org/1999/xlink" version="1.1" x="0" y="0" viewBox="29.643570427035947 1.202 39.377867213320165 97.601" enable-background="new 0 0 100 100" xml:space="preserve" height="178.46844926864807" width="72.00445586692749" class="icon-icon-0" data-fill-palette-color="accent" id="SvgjsSvg6442"><path fill="black" d="M48.786 57.076C48.786 56.769 49.036 56.519 49.347 56.519A0.56 0.56 0 1 1 48.786 57.076M42.647 72.865L42.981 72.529 45.594 72.992A3 3 0 0 0 45.569 73.291H42.696L42.739 73.648H45.569C45.575 73.748 45.583 73.847 45.594 73.947L42.981 74.408 42.811 74.236C43.961 83.466 45.954 92.447 49.332 96.871 52.71 92.447 54.701 83.467 55.855 74.236L55.683 74.408 53.068 73.947C53.08 73.849 53.089 73.75 53.093 73.648H55.927L55.97 73.291H53.093A4 4 0 0 0 53.068 72.992L55.683 72.531 56.019 72.867C56.146 71.763 56.263 70.658 56.369 69.56 56.775 65.353 57.021 61.283 57.17 57.789 54.254 62.668 50.366 65.35 50.04 65.492A0.76 0.76 0 0 1 49.593 66.437L50.271 67.119 49.804 69.773C49.706 69.763 49.611 69.753 49.513 69.75V66.463A0.7 0.7 0 0 1 49.355 66.49H49.314A1 1 0 0 1 49.156 66.463V69.75C49.056 69.754 48.961 69.766 48.865 69.773L48.394 67.117 49.074 66.435A0.754 0.754 0 0 1 48.627 65.492C48.303 65.347 44.412 62.668 41.496 57.789 41.644 61.283 41.892 65.353 42.297 69.56 42.401 70.656 42.518 71.762 42.647 72.865M49.336 65.309A0.42 0.42 0 0 0 49.336 66.149C49.565 66.143 49.744 65.958 49.744 65.729S49.565 65.314 49.336 65.309M34.487 50.59C34.272 50.746 34.083 50.94 33.977 51.19L30.661 61.393C30.231 62.715 31.169 63.102 31.712 63.196 32.019 63.247 38.54 64.813 38.54 64.813 39.093 64.946 39.104 65.524 38.56 65.68 38.56 65.68 32.189 67.52 31.357 67.762 30.837 67.914 30.662 68.455 30.882 68.895L30.909 68.961C32.309 73.469 40.054 93.436 48.737 97.588 41.52 88.397 40.364 59.92 40.37 47.778zM49.918 97.576C58.613 93.435 66.357 73.469 67.755 68.961L67.782 68.897C68.003 68.458 67.827 67.917 67.307 67.764 66.477 67.522 60.104 65.682 60.104 65.682 59.559 65.526 59.573 64.948 60.124 64.815 60.124 64.815 66.647 63.249 66.952 63.198 67.495 63.104 68.432 62.718 68.003 61.395L64.689 51.192C64.584 50.942 64.394 50.749 64.179 50.59L58.294 47.779C58.303 59.92 57.145 88.396 49.918 97.576M57.404 45.697C57.099 45.926 56.787 46.154 56.47 46.373L56.452 48.655C56.755 48.23 57.071 47.807 57.401 47.39V45.697zM42.194 46.354A28 28 0 0 1 41.262 45.685V47.392C41.59 47.809 41.907 48.232 42.209 48.657zM37.596 39.062C37.795 39.747 37.994 40.385 38.196 40.978L38.21 41.018C38.653 42.351 40.61 44.201 42.839 45.721 43.109 46.276 43.433 46.834 43.798 47.379A34 34 0 0 1 43.091 46.944L43.126 51.199 46.034 50.066C46.272 50.303 46.518 50.529 46.764 50.744L44.174 51.754C47.731 58.082 48.701 64.219 49.039 65.033A0.8 0.8 0 0 1 49.326 64.969 0.8 0.8 0 0 1 49.623 65.033C49.961 64.219 50.933 58.082 54.49 51.754L51.906 50.746C52.152 50.531 52.396 50.303 52.636 50.069L55.536 51.199 55.573 46.964C55.335 47.114 55.096 47.26 54.858 47.401 55.229 46.848 55.561 46.283 55.833 45.721A24 24 0 0 0 57.864 44.174C59.21 43.023 60.173 41.887 60.464 41.019L60.581 40.659C60.743 40.164 60.905 39.639 61.069 39.084 61.411 38.998 61.751 38.902 62.087 38.797A69 69 0 0 1 61.439 40.929L61.316 41.302C60.941 42.422 59.806 43.694 58.449 44.856L58.303 44.982V46.763C59.248 47.117 61.108 48.128 64.608 49.803 65.012 50.032 65.36 50.458 65.532 50.879L68.86 61.117C69.567 63.299 67.762 63.967 67.106 64.078 66.903 64.113 63.922 64.824 61.987 65.289 63.934 65.851 67.003 66.738 67.563 66.902 68.692 67.23 69.006 68.408 68.604 69.261 67.262 73.561 59.629 93.557 50.6 98.25 50.6 98.25 49.968 98.572 49.333 98.803A19 19 0 0 1 48.065 98.25C39.036 93.557 31.405 73.561 30.061 69.262 29.659 68.408 29.973 67.231 31.102 66.903A3844 3844 0 0 1 36.678 65.29C34.74 64.825 31.762 64.114 31.561 64.079 30.903 63.968 29.098 63.3 29.805 61.118L33.133 50.88C33.305 50.459 33.653 50.033 34.057 49.804 37.559 48.129 39.414 47.118 40.362 46.764V44.978C38.96 43.811 37.76 42.505 37.344 41.27A60 60 0 0 1 36.576 38.778C36.909 38.881 37.247 38.977 37.596 39.062M48.079 72.783A1.43 1.43 0 0 0 48.079 74.158L45.833 75.392 46.774 73.47 45.833 71.548zM50.02 72.217A1.42 1.42 0 0 0 48.645 72.217L47.411 69.971 49.331 70.912 51.25 69.971zM52.83 71.549L51.891 73.469 52.83 75.391 50.582 74.157A1.41 1.41 0 0 0 50.582 72.783zM44.211 68.279H44.744L46.791 70.718A4 4 0 0 0 46.578 70.925L44.211 68.939zM44.211 70.307V69.407L46.328 71.219 44.625 70.285 44.805 70.648zM44.125 71.385L44.211 71.297V70.719L45.086 71.225 45.391 71.846zM43.288 72.223L43.849 71.662 45.619 72.307 45.701 72.475C45.687 72.53 45.672 72.584 45.66 72.639zM43.848 75.275L43.287 74.714 45.656 74.298C45.67 74.353 45.683 74.407 45.699 74.462L45.617 74.63zM44.211 76.219V75.641L44.125 75.553 45.391 75.094 45.086 75.715zM44.211 77.531V76.631L44.805 76.289 44.625 76.654 46.346 75.742zM44.799 78.592H44.211V77.996L46.578 76.012C46.644 76.084 46.717 76.155 46.791 76.221zM46.167 78.592H45.267L47.089 76.461 46.148 78.176 46.513 77.996zM47.247 78.674L47.163 78.592H46.579L47.087 77.715 47.706 77.41zM48.084 79.512L47.523 78.953 48.168 77.183 48.391 77.076 48.508 77.105zM49.153 80.582L48.393 79.82 48.862 77.164C48.958 77.176 49.055 77.185 49.153 77.189zM50.27 79.822L49.51 80.584V77.189C49.608 77.183 49.705 77.175 49.803 77.164zM51.139 78.955L50.578 79.516 50.155 77.108 50.272 77.079 50.493 77.186zM52.082 78.592H51.5L51.416 78.676 50.955 77.41 51.574 77.713zM53.396 78.592H52.496L52.152 77.996 52.517 78.176 51.595 76.446zM54.523 78.061V78.592H53.863L51.873 76.221C51.945 76.155 52.018 76.084 52.084 76.012zM54.523 76.674V77.594L52.335 75.721 54.038 76.655 53.858 76.29zM54.537 75.555L54.523 76.262 53.576 75.715 53.271 75.094zM55.375 74.717L54.816 75.276 53.045 74.633 52.963 74.463C52.979 74.41 52.992 74.354 53.006 74.299zM54.816 71.662L55.375 72.224 53.006 72.642A2 2 0 0 0 52.965 72.476L53.045 72.31zM54.523 70.678V71.373L53.281 71.832 53.578 71.225zM54.523 69.346V70.266L53.859 70.651 54.039 70.286 52.318 71.198zM53.918 68.279H54.523V68.881L52.084 70.926A4 4 0 0 0 51.871 70.719zM52.533 68.279H53.453L51.574 70.478 52.517 68.763 52.152 68.941zM51.416 68.264L52.121 68.28 51.576 69.225 50.957 69.528zM50.578 67.426L51.139 67.985 50.493 69.755 50.272 69.864 50.155 69.835zM47.528 67.984L48.087 67.423 48.513 69.833 48.392 69.862 48.171 69.753zM46.542 68.279H47.231L47.69 69.519 47.088 69.224zM45.211 68.279H46.129L46.512 68.941 46.147 68.763 47.069 70.493zM48.282 73.469A1.05 1.05 0 1 1 50.379 73.469 1.05 1.05 0 0 1 48.282 73.47M48.645 74.723A1.45 1.45 0 0 0 50.021 74.723L51.253 76.969 49.334 76.026 47.414 76.969zM48.786 82.115C48.786 81.806 49.036 81.558 49.347 81.558A0.56 0.56 0 1 1 48.786 82.115M48.786 92.541A0.56 0.56 0 0 1 49.906 92.541 0.56 0.56 0 1 1 48.786 92.541M55.293 3.012C55.354 3.047 55.414 3.081 55.481 3.115 61.364 6.501 50.977 6.493 49.481 14.798 48.958 9.506 56.043 6.917 54.113 2.588A1.5 1.5 0 0 0 53.822 2.16C54.219 2.381 54.689 2.661 55.293 3.012M61.805 36.405C62.018 35.562 62.233 34.663 62.446 33.704 62.458 33.667 62.483 33.6 62.483 33.6A0.4 0.4 0 0 1 62.518 33.532C62.59 33.398 62.741 33.299 62.981 33.299 64.495 33.299 64.795 32.783 65.065 32.064 65.456 31.008 65.618 30.221 66.473 29.379 66.491 29.362 66.506 29.347 66.524 29.334L66.577 29.281C67.493 28.44 67.876 27.041 67.778 25.93 67.719 25.252 67.493 24.804 67.247 24.625 67.081 24.506 66.813 24.439 66.349 24.727 65.714 25.111 64.023 25.765 63.726 26.38A0.6 0.6 0 0 1 63.622 26.537C63.409 27.07 63.208 27.475 63.024 27.693 62.577 28.226 61.987 28.033 61.862 27.393L62.186 24.588C62.389 22.898 61.901 21.311 61.19 19.82 61.434 19.15 62.518 16.77 62.491 16.035 62.458 15.126 61.268 12.064 61.003 11.222 60.581 9.873 58.696 11.03 58.005 11.404 56.165 12.397 53.847 14.007 51.484 15.035 51.091 15.206 50.352 15.628 49.762 15.813 50.256 12.618 58.207 11.357 58.834 6.386 59.004 5.04 57.635 4.09 56.586 3.568 57.721 3.951 59.068 4.235 59.898 4.434 68.488 6.491 67.761 10.244 66.49 15.72 66.365 16.259 65.273 21.411 64.213 24.833 64.758 24.529 65.34 24.295 65.871 23.969 66.555 23.546 67.232 23.508 67.773 23.9 68.335 24.306 68.605 25.076 68.673 25.854 68.786 27.173 68.355 28.869 67.187 29.94L67.132 29.987 67.103 30.02C66.388 30.723 66.238 31.484 65.906 32.377 65.543 33.359 64.968 34.12 63.254 34.191A90 90 0 0 1 62.795 36.146 19 19 0 0 1 61.805 36.405M48.979 15.861A2 2 0 0 1 48.805 15.806C48.239 15.602 47.709 15.275 47.157 15.035 44.794 14.007 42.477 12.397 40.636 11.404 39.945 11.03 38.062 9.873 37.638 11.222 37.374 12.064 36.183 15.126 36.15 16.035 36.123 16.77 37.207 19.149 37.451 19.82 36.74 21.311 36.252 22.897 36.455 24.588L36.779 27.393S36.746 27.564 36.695 27.665C36.183 28.652 35.408 27.428 35.193 26.975A10 10 0 0 1 34.865 26.178C34.492 25.615 32.922 25.095 32.314 24.719 31.789 24.392 31.505 24.51 31.316 24.718 30.636 25.464 30.666 27.958 32.117 29.297 33.103 30.221 33.201 31.045 33.66 32.187 33.914 32.824 34.306 33.304 35.758 33.304L35.826 33.312C35.994 33.332 36.154 33.447 36.23 33.706 36.443 34.657 36.656 35.55 36.867 36.387A16 16 0 0 1 35.877 36.121 109 109 0 0 1 35.422 34.192C33.83 34.118 33.197 33.445 32.826 32.521 32.435 31.545 32.334 30.725 31.51 29.958 29.785 28.375 29.561 25.315 30.656 24.114 31.568 23.113 32.549 23.884 33.461 24.3 33.773 24.442 34.088 24.576 34.395 24.731 33.756 22.598 33.032 19.489 32.157 15.721 30.884 10.245 30.157 6.492 38.747 4.435 40.776 3.949 42.411 3.647 44.116 2.522 46.153 1.177 47.087 1.276 49.307 1.202 50.652 1.247 51.41 1.275 52.043 1.41 56.984 2.769 47.358 7.642 48.979 15.861M45.196 48.373C42.846 45.394 42.571 43.17 42.571 43.17 46.714 49.017 48.292 44.044 48.315 41.199 48.669 41.184 49.04 41.153 49.42 41.153 49.74 41.153 50.055 41.175 50.358 41.191 50.379 44.034 51.957 49.023 56.104 43.17 56.104 43.17 55.829 45.394 53.479 48.373 51.483 50.902 49.337 51.902 49.337 51.902S47.192 50.902 45.196 48.373M52.346 40.323C51.869 40.614 51.352 40.676 50.866 40.677 50.413 40.679 49.927 40.624 49.423 40.624S48.437 40.679 47.985 40.677C47.501 40.675 46.985 40.613 46.51 40.323 45.998 40.011 46.467 39.246 46.979 39.558 47.249 39.724 47.571 39.78 47.989 39.782 48.438 39.784 48.921 39.729 49.423 39.729 49.927 39.729 50.411 39.784 50.862 39.782 51.284 39.78 51.61 39.723 51.88 39.558 52.389 39.246 52.855 40.012 52.346 40.323M61.295 31.08C60.266 31.92 59.391 33.046 58.744 34.373 58.482 34.911 57.678 34.518 57.937 33.98 58.632 32.547 59.585 31.314 60.728 30.384 61.193 30.007 61.758 30.703 61.295 31.08M66.098 26.893C66.678 27.037 66.461 27.907 65.881 27.764 65.481 27.665 65.108 27.812 64.527 28.876 64.673 29.055 64.715 29.361 64.617 29.708 64.463 30.245 64.023 30.689 63.64 30.659 62.796 30.594 63.333 29.341 63.386 29.221 64.008 27.643 64.855 26.585 66.098 26.893M32.491 26.893C33.733 26.586 34.579 27.643 35.2 29.222 35.251 29.342 35.788 30.594 34.946 30.66 34.561 30.69 34.124 30.245 33.967 29.709 33.869 29.362 33.912 29.056 34.059 28.877 33.479 27.814 33.106 27.666 32.705 27.765 32.125 27.907 31.911 27.036 32.491 26.893M44.801 31.78A5.8 5.8 0 0 1 46.19 30.699C46.71 30.404 47.153 31.184 46.633 31.479A4.9 4.9 0 0 0 45.457 32.39C45.051 32.829 44.395 32.218 44.801 31.78M53.129 32.391A4.9 4.9 0 0 0 51.955 31.48C51.435 31.185 51.879 30.404 52.398 30.7A5.8 5.8 0 0 1 53.785 31.781C54.193 32.218 53.535 32.829 53.129 32.391M61.016 23.731C61.553 25.032 61.539 25.236 60.286 24.598 57.434 23.147 52.077 25.895 51.229 24.603 50.833 24 51.258 23.383 52.041 23.383 53.928 23.384 59.455 19.938 61.016 23.731M54.625 26.585C54.625 26.467 54.643 26.353 54.672 26.245 54.295 26.294 54.065 26.36 53.908 26.435 53.592 26.588 53.431 26.953 53.222 27.216 52.851 27.684 52.148 27.125 52.521 26.657 52.675 26.465 52.777 26.292 52.892 26.142 53.656 25.154 55.529 25.261 56.568 25.261 58.043 25.261 59.064 25.689 59.605 26.639 59.902 27.158 59.123 27.603 58.828 27.083 58.555 26.605 58.051 26.265 57.078 26.179A1.26 1.26 0 1 1 54.625 26.585M56.328 29.597C55.734 29.529 55.838 28.638 56.433 28.706 56.747 28.743 57.099 28.711 57.441 28.599A2.3 2.3 0 0 0 58.316 28.089C58.754 27.68 59.365 28.336 58.929 28.744 58.599 29.054 58.189 29.3 57.716 29.453A3.3 3.3 0 0 1 56.328 29.597M37.793 23.731C39.355 19.938 44.883 23.384 46.77 23.384 47.553 23.384 47.979 24.001 47.582 24.604 46.734 25.896 41.377 23.148 38.525 24.599 37.272 25.236 37.26 25.032 37.793 23.731M41.665 26.585C41.665 26.443 41.688 26.307 41.731 26.179 40.758 26.265 40.254 26.606 39.983 27.083 39.686 27.603 38.907 27.158 39.204 26.639 39.747 25.688 40.766 25.261 42.243 25.261 43.282 25.261 45.153 25.154 45.919 26.142 46.034 26.292 46.136 26.464 46.288 26.657 46.661 27.125 45.958 27.684 45.587 27.216 45.376 26.953 45.22 26.589 44.901 26.435 44.747 26.36 44.514 26.294 44.137 26.245A1.26 1.26 0 1 1 41.665 26.585M42.481 29.597A3.3 3.3 0 0 1 41.092 29.453 3.2 3.2 0 0 1 39.879 28.744C39.443 28.336 40.059 27.681 40.494 28.089 40.726 28.307 41.021 28.487 41.369 28.599 41.711 28.711 42.06 28.743 42.377 28.706 42.971 28.638 43.073 29.529 42.481 29.597M37.436 31.08C36.973 30.703 37.54 30.007 38.002 30.385 39.145 31.315 40.098 32.548 40.791 33.981 41.055 34.519 40.246 34.911 39.986 34.374 39.34 33.046 38.465 31.92 37.436 31.08M49.336 24.337L49.731 23.844C50.106 23.378 50.805 23.938 50.432 24.406L49.688 25.337C49.493 25.582 49.184 25.582 48.987 25.337L48.243 24.406C47.868 23.939 48.569 23.379 48.944 23.844zM49.401 33.983C49.608 33.981 50.299 33.963 50.553 33.918 51.035 33.833 51.526 33.455 51.563 33.427 51.709 33.316 51.844 33.248 52.073 33.198 52.61 33.081 53.046 33.418 53.135 33.53 53.432 33.901 53.27 34.269 52.791 34.269H52.344C51.604 34.269 51.24 34.701 50.415 34.916 53.077 35.259 54.139 36.907 58.51 37.245 61.604 37.484 66.707 35.723 67.903 33.767 67.049 36.37 62.514 39.144 56.419 39.065 53.605 39.028 53.694 38.157 51.79 38.126H46.965C45.063 38.158 45.153 39.029 42.338 39.065 36.242 39.144 31.707 36.37 30.856 33.767 32.047 35.723 37.153 37.484 40.249 37.245 44.636 36.906 45.687 35.245 48.376 34.912 47.56 34.695 47.196 34.269 46.46 34.269H46.015C45.536 34.269 45.372 33.901 45.671 33.53 45.759 33.418 46.194 33.081 46.733 33.198 46.962 33.248 47.096 33.315 47.241 33.427 47.278 33.455 47.764 33.865 48.251 33.918 48.659 33.963 49.194 33.981 49.401 33.983"></path></svg></g></svg></g></svg></g><defs><mask></mask></defs></svg><rect width="395.52" height="138.10630449523327" fill="black" stroke="none" visibility="hidden"></rect></g></mask></svg><rect width="395.52" height="138.10630449523327" fill="black" stroke="none" visibility="hidden"></rect></g></mask><linearGradient x1="0" x2="1" y1="0.5" y2="0.5" id="e6d09347-ca1a-40b8-abf0-1539ec135450"><stop stop-color="#f00b51" offset="0"></stop><stop stop-color="#730062" offset="1"></stop></linearGradient><rect width="395.52" height="138.10630449523327" fill="url(#e6d09347-ca1a-40b8-abf0-1539ec135450)" mask="url(#70642de8-6586-4350-a4dc-153e61114dbf)" data-fill-palette-color="accent"></rect></svg><rect width="395.52" height="138.10630449523327" fill="none" stroke="none" visibility="hidden"></rect></g></svg></g></svg>